<svg xmlns="http://www.w3.org/2000/svg" viewBox="0 0 921.75 204.25"><defs><style>.cls-1{fill:#fff;}</style></defs><title>Asset 1</title><g id="Layer_2" data-name="Layer 2"><g id="Layer_1-2" data-name="Layer 1"><path class="cls-1" d="M28.31,109.47c3.08,2.37,7.52,2.27,11.09.73s6.44-4.3,9.17-7.06a24.57,24.57,0,0,0,3.14-3.62c4.68-7,1.52-16.45-1.84-24.21-2.07-4.77-4.21-9.72-4.11-14.92.07-4.14,1.56-8.1,3-12,3.14-8.23,7.45-17.56,16-19.68,2.73-.67,5.6-.49,8.36-1a13.4,13.4,0,0,0,9.46-6.28c1.88-3.43,1.54-8.15-1.33-10.81-2.09-2-5.07-2.57-7.89-3A165.82,165.82,0,0,0,37.87,5.72c-7.54.41-15.36,1.44-21.64,5.63C5,18.85,2,33.82,0,47.2a151.56,151.56,0,0,1,15.26-7.46c1.85-.78,4.06-1.5,5.75-.42A5.41,5.41,0,0,1,23,42.15c4,11-3.32,23.51.19,34.65,1,3.27,3,6.27,3.44,9.67.66,4.73-1.61,9.33-2.36,14S25.28,111.27,30,112Z"/><path class="cls-1" d="M112.21,103.31a72.43,72.43,0,0,0,6.63-26c.19-3.11.27-6.49,2.24-8.9,2.25-2.75,6.2-3.31,9.75-3.31,2.57,0,5.26.23,7.44,1.59s3.64,4.18,2.72,6.57-4,4.12-3.52,6.65a8.51,8.51,0,0,0,1.4,2.64c2.36,4,.44,9-.7,13.45a36.76,36.76,0,0,0-1.06,11.3c.07,1.23.3,2.62,1.34,3.3a4.23,4.23,0,0,0,2.23.49l16.6.52a3.34,3.34,0,0,0,2-.35c1.21-.8.88-2.6.77-4-.49-6,5.1-10.88,6.07-16.84.74-4.55-1.3-9.2-.63-13.76.38-2.55,1.58-4.89,2.24-7.38,2.17-8.1-1.51-16.63-.91-25,.32-4.48,1.86-8.77,3.38-13l9.68-26.87a113.07,113.07,0,0,1-36.91,2A59.6,59.6,0,0,1,141.78,46a27.22,27.22,0,0,0-24,.84c-1.11-2.21,2.93-3.73,3.33-6.17s-2.76-3.73-3.89-5.89c-1.5-2.87.88-6.1,2.21-9,2.22-4.9,1.51-10.57.76-15.9-4.23,1.64-8.41-2.27-12.78-3.47A12.5,12.5,0,0,0,95.45,9.88a16.24,16.24,0,0,0-4.24,12c1.59,1.19,4.38-1.35,5.64.19.94,1.15-.47,2.66-1.4,3.81-4.08,5,.73,12.32.18,18.73a32.54,32.54,0,0,1-1.39,5.81c-2,7.46-1.38,15.36-.76,23.07a21.69,21.69,0,0,1-.09,6,27.27,27.27,0,0,1-1.5,4.38,52.75,52.75,0,0,0-3.57,21.12c1-.91,2.69,0,3.32,1.25s.78,2.67,1.65,3.72a5.37,5.37,0,0,0,2.24,1.45,13.67,13.67,0,0,0,18.19-16.47Z"/><path class="cls-1" d="M266.61,16.74a21.52,21.52,0,0,0-19.83-5.11,11.28,11.28,0,0,1-3.42.63c-2-.09-3.9-1.53-5.93-1.3a4.55,4.55,0,0,1-2,.1c-.71-.26-1.09-1-1.49-1.65a13.65,13.65,0,0,0-5-4.3c-7.44-4.3-16.4-6.25-24.8-4.43s-16.05,7.67-19.12,15.69c-1.62,4.26-2,9-3.93,13.07-1.19,2.5-2.94,4.7-4.07,7.22s-1.55,5.63-.06,8c.68,1.06,1.72,1.9,2.13,3.09.94,2.68-1.71,5.38-1.6,8.22.08,2.18,1.77,4,2.31,6.1,1,3.73-1.74,7.27-3.38,10.75-2.9,6.13-2.66,13.22-2.36,20a9.38,9.38,0,0,0,.8,4,28.57,28.57,0,0,0,2.23,2.83c1.68,2.39,1.59,5.55,1.78,8.47s1,6.21,3.59,7.57c2.1,1.1,4.71.52,6.85-.51s4.1-2.48,6.38-3.18c6.47-2,13.92,2.57,20-.37,3.12-1.51,5.14-4.7,8.16-6.4,4-2.22,9.77-2,11.88-6.06,1-1.93.8-4.36,1.93-6.22s3.33-2.75,4.87-4.28c3.27-3.24,3.24-8.91,6.73-11.9-2.37-2.09-6.08-1.43-8.93-.08-6.19,2.95-11.18,8.56-17.92,9.8-4.15.76-8.71-.21-12.43,1.77-1.91,1-3.63,2.8-5.79,2.67a13.93,13.93,0,0,1-3.21-1,7.23,7.23,0,0,0-8.27,3.36l8.13-3.21a15.29,15.29,0,0,1,0-16.08,27.5,27.5,0,0,0,2.4-3.76c1.63-3.7.09-8.36,2.21-11.8a2.66,2.66,0,0,1,1.09-1.09,3.58,3.58,0,0,1,2.65.25,49.83,49.83,0,0,0,7.3,2,5.68,5.68,0,0,0,3.22-.06c1.25-.52,2-1.8,2.69-3A37.39,37.39,0,0,1,238.1,42.37a14.8,14.8,0,0,0,3.9-2.3A3.94,3.94,0,0,0,243.22,36,247.27,247.27,0,0,0,214.4,48.18c-2.09,1-5.23,1.83-6.29-.27-.33-.67-.36-1.55-1-2-1.49-1.15-4.09,1.77-5.23.28a2,2,0,0,1-.32-1c-.82-7.64.93-10.72,3.95-17.78.13,1.88,4.87-2.88,5-1-1.28-1.88-.48-1.24,1.29-2.68s4.11-1.9,6.36-2.26c4.58-.73,9.83-1.07,13.31,2a5.84,5.84,0,0,0,1.38,1.06,4.17,4.17,0,0,0,2.45,0l21.89-4.18a72.39,72.39,0,0,0,10.07-2.43Z"/><path class="cls-1" d="M362.93,18.43c.73-2.31,3.87-2.8,6.19-2.1s4.45,2.16,6.87,2.21a3.36,3.36,0,0,1,1.71.27c1.12.69.69,2.58,1.66,3.46a2.51,2.51,0,0,0,1.3.53c1.93.35,3.93.1,5.88.32s4,1,4.88,2.82a6.91,6.91,0,0,1,.54,2.29,60.3,60.3,0,0,1-5.9,33.48,17.22,17.22,0,0,1,10.57,1.13,46,46,0,0,0,5.47,2.56c1.93.58,4.26.46,5.66-1a7.66,7.66,0,0,0,1.57-3.33l4.18-14.6A26.85,26.85,0,0,0,415,38.13c-.05-1.48-.35-3-.47-4.43-.34-4.4,1.29-9.23,5.08-11.5s9.69-.76,10.95,3.47c.73,2.47-.14,5.08-.65,7.6-.64,3.15-.66,6.6.95,9.39.91,1.59,2.32,2.91,2.88,4.65a9.8,9.8,0,0,1-.32,5.46c-1.86,6.81-5,13.38-5.29,20.42-.14,3.5.43,7,.12,10.48-.24,2.69-1,5.31-1.46,8a36.21,36.21,0,0,0,2,19.27,3.81,3.81,0,0,1,.39,2.56,3.37,3.37,0,0,1-.83,1.19c-4.35,4.58-11.07,7.87-17,5.59-3.38-1.31-5.85-4.2-8.18-7a12.49,12.49,0,0,1-2.39-3.63c-1-2.86.09-6-.07-9-.08-1.68-.58-3.37-.32-5a14.18,14.18,0,0,1,1.05-3.08,26.1,26.1,0,0,0,1.82-10.88,27.22,27.22,0,0,1-12.08-3.38c-1.54-.85-3.19-1.9-4.92-1.55-2,.39-3.18,2.51-3.44,4.51s.14,4,0,6.06c-.26,3.94-2.54,7.53-2.88,11.48-.29,3.37.87,6.7,1,10.09a6.44,6.44,0,0,1-.65,3.58,8,8,0,0,1-2.88,2.51l-7.87,4.86c-1.36.84-3.16,1.67-4.43.7-.72-.56-1-1.55-1.69-2.13-1.27-1.07-3.24-.33-4.84-.81a4.65,4.65,0,0,1-1.5-.81c-3.4-2.58-4.47-7.37-3.85-11.61s2.63-8.11,4.38-12a109,109,0,0,0,5.08-74.75c-.27-1-.5-2.15.27-2.77a2.25,2.25,0,0,1,1.07-.4,11.28,11.28,0,0,1,8.73,2.2Z"/><path class="cls-1" d="M496.59,28a93.66,93.66,0,0,0-3.67,13.36c-1.11,5.66-1.69,11.41-2.27,17.15a45.54,45.54,0,0,0-.35,7.29c.3,5.32,2.43,10.46,2.27,15.79-.14,4.44-1.85,8.67-2.65,13-.46,2.55-.61,5.14-1.09,7.68-1.23,6.43-4.59,12.77-3.22,19.17a2.78,2.78,0,0,0,.72,1.51,2.71,2.71,0,0,0,1.36.53,14,14,0,0,0,7.58-.76c1.7-.67,3.34-1.69,5.18-1.73a9.76,9.76,0,0,1,3.35.71l7.09,2.36.22-.41c4.42.31,7.84-4.28,8.31-8.68s-1-8.76-1.77-13.13a36.76,36.76,0,0,1-.49-6.87A4.08,4.08,0,0,1,521,90.32a34.07,34.07,0,0,1,11.33-1l-2.82,18.15c-.79,5.12-1.59,10.31-1.17,15.47a3.34,3.34,0,0,0,.48,1.72,3,3,0,0,0,1.8,1c4.38,1,8.92-1.17,12.39-4a33.12,33.12,0,0,0,10.86-17.23,66,66,0,0,0,1.41-9.07l1.75-16.13c.61-5.72,1.26-11.55,3.7-16.76,1-2,2.17-3.94,3-6a34.51,34.51,0,0,0,1.72-8.63L566.62,37c.23-2,.34-4.31-1.11-5.71s-3.53-1.23-5.34-.7-3.55,1.41-5.43,1.45c-2.33.05-4.51-1.21-6.84-1.27-3.86-.1-7,3-9.46,5.94-1.93,2.29-3.85,4.74-4.46,7.67-.87,4.16,1.07,8.36,1.33,12.6.22,3.48-.7,6.92-1.61,10.28-.37,1.37-.9,2.93-2.22,3.47a8.79,8.79,0,0,1-2.3.3c-2.42.29-4.64,2.33-7,1.72a4.52,4.52,0,0,1-3-3.83,13.39,13.39,0,0,1,.58-5.09l4.07-16.35a10.91,10.91,0,0,0,.47-4.31c-.37-2.28-2.15-4.08-4.06-5.38s-4-2.28-5.77-3.82c-2.15-1.92-3.87-4.81-6.73-5.13-1.87-.21-3.83.79-5.59.13s-3.4-2.56-4.7-1.38"/><path class="cls-1" d="M633,46.44c-1.56-.41-2.81-1.53-4.21-2.34a11.51,11.51,0,0,0-9.4-.93,12,12,0,0,1-3.69,1.06c-1.88,0-3.51-1.26-5.33-1.76-2.94-.81-6.05.53-8.59,2.22a31.6,31.6,0,0,0-13.69,21.82c-.13,1-.13,2.13.68,2.67a2.51,2.51,0,0,0,1.21.32c2.55.14,5.36-.78,7.51.6.77.49,1.36,1.23,2.11,1.75,2.29,1.58,5.46.78,8.11,1.64a6.7,6.7,0,0,1,3.65,3c1.17,2,1,5-1,6.24-2.34,1.51-5.33-.13-8-1-3.07-1-6.38-.9-9.61-.78a6.63,6.63,0,0,0-3.55.79,4.92,4.92,0,0,0-1.9,3.6c-.16,1.39,0,2.8-.05,4.2-.09,2.44-.84,4.81-1,7.24a31,31,0,0,0,1.35,9.53,2.7,2.7,0,0,0,.59,1.28,2.51,2.51,0,0,0,1.09.52,20.84,20.84,0,0,0,10.72.09c2.7-.7,5.23-1.93,7.87-2.87a36.69,36.69,0,0,1,17.42-1.73l-.13-.39c-.4,2.26-2.18,4-4,5.33s-4,2.4-5.5,4.1c-1.16,1.28-2,2.9-3.44,3.85s-3.06,1.07-4.53,1.75c-1.77.82-3.18,2.36-5,3a11.4,11.4,0,0,1-3.91.37l-13.3-.28a37.18,37.18,0,0,0-9.6.64c-3.2.78-6.52,2.43-9.64,1.34-2.58-.91-4.24-3.57-4.69-6.28a20.43,20.43,0,0,1,.76-8.13c2.17-8.92,5.39-17.8,5-27a18.52,18.52,0,0,1,.07-4.21A14,14,0,0,1,569.49,73c2.43-3.82,5.1-7.86,5.09-12.4a49.5,49.5,0,0,0-.63-5.27A21.11,21.11,0,0,1,584.52,35l-.17-.75a17.51,17.51,0,0,1,7.72-4.51,26.09,26.09,0,0,1,3.94-.53l11.3-1a22.21,22.21,0,0,1,7.93.29,6.64,6.64,0,0,1,3.87,2.6,17.81,17.81,0,0,0,1.28,2.26,4.47,4.47,0,0,0,2.69,1.38c3,.52,6.62-.53,8.62,1.71a7.27,7.27,0,0,1,1.24,2.43l1.28,3.55c.45,1.26.59,3.16-.71,3.45"/><path class="cls-1" d="M685.83,38A256.16,256.16,0,0,0,666,93.73c-.61,2.65-.93,6,1.3,7.53,1.82,1.27,4.3.55,6.39-.2,6.85-2.43,14.44-4.64,21.23-2a26.57,26.57,0,0,1,7.2,4.53,13.73,13.73,0,0,1,3.53,3.84c1.67,3.07,1,6.83.27,10.25a15.71,15.71,0,0,1-2.42,6.3c-1.39,1.8-3.85,3-6,2.18-2-.74-3.09-2.87-5-3.8-2.65-1.31-5.81.12-8.75-.12-3.1-.25-5.71-2.33-8.63-3.38-5.35-1.91-11.45-.19-16.12,3-2.19,1.51-4.57,3.45-7.18,2.92a20.19,20.19,0,0,1-2.77-1c-4.51-1.58-9.36,1.74-14.12,1.27a1,1,0,0,1-.49-.13c-.63-.41,0-1.33.53-1.85,2.75-2.69,2.59-7.05,3.36-10.82s2.71-7.41,3.58-11.25c.73-3.16.73-6.44,1.3-9.63.92-5,3.24-9.69,5.72-14.17,1.65-3,3.39-6.64,1.64-9.54-.92-1.53-2.66-2.46-3.51-4a7.56,7.56,0,0,1-.7-3.46c-.18-7.54,2.62-14.79,5.42-21.79a7.84,7.84,0,0,1,2.46-3.79c1.67-1.15,3.89-.84,5.92-.86,3.15,0,6.2-1,9.24-1.74s6.24-1.39,9.32-.76,6,2.78,6.75,5.83Z"/><path class="cls-1" d="M753.21,30.89c-1.93,2.62-1,6.29,0,9.39L755,46.1a15.89,15.89,0,0,1,.79,3.25c.47,4.86-3.41,8.89-5.58,13.26-3.93,7.89-2.41,17.69-6.54,25.47-.89,1.66-2,3.19-2.75,4.91a6.88,6.88,0,0,0-.29,5.47,6.41,6.41,0,0,0,4.69,3.32,20.88,20.88,0,0,0,6,0,125.82,125.82,0,0,1,14.66-.43,8.39,8.39,0,0,1,3.52.62c2,1,2.91,3.32,3.2,5.51a14.29,14.29,0,0,1-3.27,11.19,12,12,0,0,1-10.81,3.91c-4.52-.81-8.27-4.43-12.85-4.75-3.59-.24-6.94,1.58-10.34,2.71-5.27,1.75-10.92,1.91-16.47,2a8.15,8.15,0,0,1-4.49-.75,2.2,2.2,0,0,1-1.14-1.48,3.07,3.07,0,0,1,.32-1.56L718,108.05a94.94,94.94,0,0,0,3.87-10.91c.86-3.24,1.37-6.56,2-9.85A64.52,64.52,0,0,1,726.92,76c1-2.68,2.31-5.87.64-8.21-1.17-1.63-3.45-2.22-4.52-3.91s-.68-3.55-.31-5.34a141.88,141.88,0,0,1,5.85-20.38,13.28,13.28,0,0,1,1.89-3.76,10.87,10.87,0,0,1,2.78-2.31A25.19,25.19,0,0,1,753,29.23Z"/><path class="cls-1" d="M841.3,36.22c-1.49,6.8-3,13.73-2.29,20.65a23.91,23.91,0,0,1,.29,4.62,18.54,18.54,0,0,1-1,3.93L834.12,78a34.34,34.34,0,0,1-3.65,8.37c-1.25,1.89-3,3.7-3,6-.06,1.59.72,3.08,1.25,4.59a15.84,15.84,0,0,1-6,17.91,30.08,30.08,0,0,1-8.33,3.41c-3.83,1.12-7.74,2.21-11.73,2.17s-8.14-1.36-10.78-4.35a9,9,0,0,1-1.71-2.86,21.44,21.44,0,0,1-.69-5.43,23.05,23.05,0,0,0-5.39-13A6.28,6.28,0,0,1,782.81,93a5.36,5.36,0,0,1-.08-2.49,64.58,64.58,0,0,1,7.59-22.71,12.85,12.85,0,0,0,1.78-4.18,3.88,3.88,0,0,0-1.57-4c-.37-.21-.81-.36-1-.74a1.55,1.55,0,0,1-.07-1,44.84,44.84,0,0,1,9.87-22.15A20.06,20.06,0,0,1,804.53,31a22.5,22.5,0,0,1,9-2.43,62.58,62.58,0,0,1,16.35.26,17.51,17.51,0,0,1,6.83,2.26,7.7,7.7,0,0,1,3.72,5.9Zm-24.37,7.5c-3.66,2.53-3.25,8.14-5.74,11.84-.85,1.25-2,2.26-3,3.43a19.81,19.81,0,0,0-2.44,4.11c-1.38,2.91-2.49,5.94-3.61,9l-1.54,4.2a5.65,5.65,0,0,0-.5,2.23,12.68,12.68,0,0,0,.79,2.64c.69,2.47-.46,5.38.91,7.55A5,5,0,0,0,804,90.46a9.87,9.87,0,0,0,8-.27,27.51,27.51,0,0,0,6.71-4.65,13.06,13.06,0,0,0,2.86-3.08c2.32-3.89.32-9.24,2.5-13.21.89-1.6,2.37-2.81,3.3-4.39a7.6,7.6,0,0,0,.42-6.73c-1.09-2.56-3.48-4.28-5.6-6.1s-4.19-4.13-4.21-6.92Z"/><path class="cls-1" d="M336.27,118.68c-2.89,2-6.23,3.5-9.72,3.42-4.5-.09-8.51-2.83-11.84-5.86s-6.35-6.51-10.29-8.69c-2.25-1.24-4.91-2.18-6.15-4.43-1.42-2.56-.42-5.91-1.67-8.56-.47-1-1.21-1.8-1.64-2.8-1.3-3.09.74-7.17-1.38-9.77-.66-.8-1.64-1.31-2.27-2.14-1.77-2.33,0-5.58,1.45-8.11,4.72-8.13,6.4-17.61,8-26.87a2.75,2.75,0,0,0-.26-2.26c-.47-.56-1.31-.67-1.84-1.17-1.08-1-.31-2.8.5-4l8.24-12.53c2.53-3.85,5.24-7.87,9.31-10S326,12.7,330.51,14s8.66,3.75,12.72,6.17a17.13,17.13,0,0,1,4.21,3.14,15.23,15.23,0,0,1,2.93,6.46,70.51,70.51,0,0,1,.2,34.25,29.52,29.52,0,0,1-2.69,7.38c-1.74,3.12-4.43,5.87-5,9.4-.32,2.08.16,4.19.21,6.3a29.32,29.32,0,0,1-.82,6.52q-2.57,12.57-6,24.94ZM325.08,31.44c-3.59,5.12-7.3,10.55-7.89,16.78-.32,3.4.25,7.1-1.56,10a17.41,17.41,0,0,0-1.31,2c-1,2.25.27,4.8.66,7.24.62,3.9-1.15,7.73-2.05,11.58s-.48,8.69,2.95,10.64a8.22,8.22,0,0,0,5.47.64c4.63-.84,8.63-3.91,11.45-7.67S337.41,74.47,339,70c1.29-3.68,2.43-7.9.58-11.33A17.78,17.78,0,0,0,336,54.63a42.45,42.45,0,0,1-9.33-13.58c-1.25-2.93-2.15-6.39-.67-9.21Z"/><path class="cls-1" d="M910.45,65.71c-.24-2.47,4.32-2.06,5.6-4.2a4.1,4.1,0,0,0,.42-1.9,42.52,42.52,0,0,0-1.21-12.1,7.52,7.52,0,0,0,1,3.69,2.55,2.55,0,0,0,3.34.92c1-.67,1.06-2,1.07-3.2l0-6a7.81,7.81,0,0,0-.26-2.51,7.71,7.71,0,0,0-1.2-2l-8-10.83a9.24,9.24,0,0,0-2.09-2.27,13.62,13.62,0,0,0-3.66-1.41c-3.3-1.07-6.15-3.27-9.44-4.35-8.09-2.67-16.64,1.75-24,6L860.57,32.2a9.48,9.48,0,0,0-2.91,2.25c-2.41,3.17,0,7.65-.08,11.64,0,3.23-1.68,6.17-2.76,9.2s-1.51,6.75.58,9.2c.67.8,1.56,1.39,2.2,2.22a11,11,0,0,1,1.63,4.53,40.23,40.23,0,0,0,3.64,10,20.3,20.3,0,0,0,3.76,5.31c4.68,4.51,11.76,5.05,17.94,7.05,2.29.74,4.85,2.15,5,4.56.13,1.63-.92,3.08-1.59,4.58-1.22,2.72-1.23,5.83-2.23,8.63s-3.71,5.49-6.6,4.77c-2.42-.61-3.76-3.28-6-4.34-1.52-.72-3.47-.71-4.57-2s-1-3.64-2.48-4.49a4.84,4.84,0,0,0-2-.39c-3.84-.32-7.22-2.54-10.42-4.69a6.39,6.39,0,0,1-2.23-2.09c-1.3-2.44.89-5.22,2.91-7.11-3.6-1.93-8.36,0-10.64,3.36s-2.53,7.75-2,11.79a15.44,15.44,0,0,0,2.08,6.22c1.87,2.86,5,4.57,7.42,7,1.82,1.89,3.15,4.2,5,6.09A16,16,0,0,0,869,130.32c2.81-.25,5.52-1.25,8.33-1.37,3.31-.14,6.53.93,9.8,1.39,5.7.8,12-.49,16-4.56a21.9,21.9,0,0,0,4.86-8.53,44.52,44.52,0,0,0-3.43-35.87,16.58,16.58,0,0,0-2.15-3.09,20.7,20.7,0,0,0-6-4l-9.34-4.8a22.89,22.89,0,0,1-5.19-3.28c-4.16-3.85-4.86-10.51-2.67-15.74S886,41.29,891,38.61a4,4,0,0,1,3.1-.62A3.6,3.6,0,0,1,896,40.21a14.25,14.25,0,0,1,.81,7.75c-.52,2.93-2,5.78-1.55,8.72s2.85,5.52,5.63,6.85a28.33,28.33,0,0,0,8.94,2.09Z"/><path class="cls-1" d="M11.27,201.73,20,203.35a7.85,7.85,0,0,0,3.44.12c2.11-.55,3.4-2.79,3.68-5s-.18-4.35-.35-6.53A24,24,0,0,1,29,179.92c.31-.66.78-1.4,1.51-1.45s1.41.79,1.76,1.55c2,4.38,2.49,9.35,4.67,13.65s7.19,7.89,11.65,6.06c3.87-1.58,5.25-6.25,6.17-10.33l6.53-29.09c1.18-5.29,2.38-10.64,2.21-16.05a2.82,2.82,0,0,0-.34-1.52,3,3,0,0,0-1.89-1c-3.05-.71-6.83-1.19-8.76,1.27a8.27,8.27,0,0,0-1.32,4q-1.8,12.33-3.61,24.66c-3.72-2.92-7.61-6.06-9.34-10.46-2-5.18-.69-11.18-2.55-16.42a8.59,8.59,0,0,0-2.6-3.94c-3.6-2.84-9.07-.76-12.32,2.48a21.85,21.85,0,0,0-5.61,20.48c.58,2.23,1.52,4.39,1.77,6.68.41,3.76-1.06,7.44-2.25,11a82.28,82.28,0,0,0-4.06,20.85Z"/><path class="cls-1" d="M86.08,146.34a12,12,0,0,1,8.2,6.72,23.12,23.12,0,0,1,2,10.7,23.83,23.83,0,0,1-1.2,7.78c-1.73,4.85-5.77,9.09-5.53,14.23.12,2.75,1.5,5.55.57,8.14A8.83,8.83,0,0,1,86.34,198c-2.77,1.85-6.67,3.33-9.2,1.17s-1.93-6.28-4.29-8.45c-1-.89-2.37-1.37-3-2.54-.91-1.74.45-3.78.54-5.75.17-3.67-4.1-7.36-2.07-10.43.49-.75,1.29-1.26,1.79-2a6.28,6.28,0,0,0,.67-3.47c0-5.32,0-10.92,2.76-15.49s9.06-7.42,13.53-4.54ZM85.23,155c-2.82.17-4.81,2.81-6.08,5.34A34.94,34.94,0,0,0,76.64,167c-.31,1.18-.52,2.55.22,3.52.32.42.78.71,1.13,1.11,1,1.14.84,2.85.78,4.36s.18,3.33,1.54,4a3.49,3.49,0,0,0,3.38-.55A8.38,8.38,0,0,0,87,170.21c-.27-.89-.7-1.72-1.06-2.59a18.07,18.07,0,0,1-.34-12.87Z"/><path class="cls-1" d="M109.36,148.77c-2.57,4.27-1.9,9.65-2.29,14.63-.31,4.06-1.38,8-2.14,12A82.39,82.39,0,0,0,103.48,193c0,1.11.16,2.37,1.07,3a3.71,3.71,0,0,0,2.06.46l6.17.16a3.16,3.16,0,0,0,1.88-.36,2.94,2.94,0,0,0,1-2.06c2.27-14.15-3.15-29.2,1.64-42.71.3-.84.59-1.9-.06-2.52a2.27,2.27,0,0,0-1.8-.34l-4.94.45Z"/><path class="cls-1" d="M124.21,193.58c.79-1,2.38-.56,3.3.26s1.55,2,2.6,2.62,2.82.38,3-.84a2.63,2.63,0,0,0-.07-.92A70.93,70.93,0,0,0,125,173.62a8.39,8.39,0,0,0,6.54-3c3.77-4.32,3.21-11.41-.48-15.8s-9.81-6.25-15.53-5.79c-.52,2.07-1,4.46.24,6.2,1.77,2.51,5.77,2,8.1,4a5.2,5.2,0,0,1,1.24,5.83,6.26,6.26,0,0,1-4.93,3.59,41.59,41.59,0,0,0-5.61.75c-1,.47-.77,1.88-1,3-.48,2.29,0,3.85,2,5a34,34,0,0,1,3,3,5.36,5.36,0,0,1,2,3c.58,3.82,2.28,6.66,2.43,10.51Z"/><path class="cls-1" d="M165.42,150.73a28,28,0,0,0,13.51,2.36,2,2,0,0,1,1.59.32,1.72,1.72,0,0,1,.35,1.31c-.11,2.69-1.43,5.16-2.73,7.52-.75,1.36-1.72,2.89-3.26,3.08a13.6,13.6,0,0,1-2.93-.45c-1.59-.18-3.1.59-4.6,1.14s-3.32.85-4.6-.12c-1.34,1.74.44,4.07,1.12,6.15a12,12,0,0,1,.28,4.52c-.25,3.7-.53,7.53-2.22,10.83-1.1,2.13-2.79,4.09-3,6.47,0,.65,0,1.31,0,2a6.35,6.35,0,0,1-4.11,4.94,17.71,17.71,0,0,1-6.65.94,3.18,3.18,0,0,1-1.4-.19c-1.51-.69-1.14-2.9-.58-4.46a82.45,82.45,0,0,0,4.91-28.46,4.57,4.57,0,0,0-.36-2.14c-.7-1.33-2.45-1.68-4-1.6s-3.07.41-4.46-.14c-2-.8-3-3.29-2.73-5.46a15.07,15.07,0,0,1,2.63-6c.63-1,1.49-2.13,2.67-2a5.79,5.79,0,0,1,1.53.53c2.2.86,4.59-.31,6.82-1.08a20.75,20.75,0,0,1,12.21-.42"/><path class="cls-1" d="M238.73,142.08a3.91,3.91,0,0,0-2,3.93"/><path class="cls-1" d="M221,155.68a2.28,2.28,0,0,0-1.95,1.08,6,6,0,0,0-.76,2.19,34.17,34.17,0,0,0-.64,6c0,1.76.06,3.53,0,5.29a75,75,0,0,1-2,14.1l-1.92,9.23a7.81,7.81,0,0,1-.5,1.71,3.85,3.85,0,0,1-2.58,2.07c-.6.13-1.23.12-1.83.25a9,9,0,0,1-2.75.61,2.88,2.88,0,0,1-2.26-2.34,8.39,8.39,0,0,1,.19-3.45l1.9-9.64a2.61,2.61,0,0,0-.14-2,2.4,2.4,0,0,0-1.31-.82,28.18,28.18,0,0,0-4.15-1.1,2.68,2.68,0,0,0-1.26,0c-.86.25-1.27,1.22-1.54,2.09a48.47,48.47,0,0,0-1.95,9.55,23.89,23.89,0,0,1-.89,5.59,6.09,6.09,0,0,1-3.74,4c-2.44.71-5-.8-7.55-.55-.68.07-1.51.2-1.91-.35a1.88,1.88,0,0,1-.26-.84,28.44,28.44,0,0,0-1.77-5.17c-.61-1.73-.93-3.71-.08-5.33.43-.84,1.17-1.59,1.17-2.53a11.34,11.34,0,0,1-.16-1.53,2.77,2.77,0,0,1,.6-1.15l3.86-5.06c1.12-1.47,2.27-3.48,1.25-5a12.78,12.78,0,0,0-1.06-1.15,5.79,5.79,0,0,1-1.1-3.75c-.09-4.57,1.56-9,3.18-13.23a2.57,2.57,0,0,1,.73-1.19c.19-.14.42-.23.61-.37a3.73,3.73,0,0,0,.92-1.25,5.73,5.73,0,0,1,8.74-1.36c.57.5,1.05,1.32.66,2s-1.59.65-2,1.36a1.41,1.41,0,0,0,.69,1.71c.57.37,1.26.52,1.83.89,1.65,1.09,1.58,3.58.82,5.41s-2,3.54-2.08,5.52a1,1,0,0,0,.18.75,1.19,1.19,0,0,0,.83.3l8.44.68a1.26,1.26,0,0,0,.72-.08,1.23,1.23,0,0,0,.52-.76c1.29-3.82.38-8.33,2.58-11.71a6.6,6.6,0,0,1,4.77-3,5.51,5.51,0,0,1,5.06,2.28"/><path class="cls-1" d="M275.86,198.32c-2.84-3.15,1.06-9-1.71-12.19a3.71,3.71,0,0,1-.65-.84,4.24,4.24,0,0,1-.13-1.38,2.93,2.93,0,0,0-4.29-2.13,5.07,5.07,0,0,0-1.37,1.54,25.47,25.47,0,0,0-3.51,8.26,18,18,0,0,1-1.14,4,13.09,13.09,0,0,1-2.74,3.38c-1.08,1.06-2.42,2.18-3.89,1.9-.72-.14-1.33-.6-2-.74a8.23,8.23,0,0,1-1.5-.23c-1.24-.49-1.3-2.19-1.13-3.51A64.18,64.18,0,0,1,257,177.31a16.67,16.67,0,0,0,1.93-5.3c.13-1.18-.05-2.38.07-3.57.36-3.66,3.31-6.44,5.34-9.51,1.7-2.55,2.83-5.47,4.69-7.91s4.8-4.43,7.83-3.94a2,2,0,0,1,.53.15,2.46,2.46,0,0,1,.9,1,17.17,17.17,0,0,0,4.68,5,3.9,3.9,0,0,1,1.2,1.08c.55.91.2,2.07.36,3.11.2,1.32,1.2,2.36,1.85,3.53a10.28,10.28,0,0,1,.7,6.92c-.46,2.32-1.36,4.53-2,6.81a43,43,0,0,0-1.14,15.42c.14,1.59.29,3.35-.68,4.61a5.25,5.25,0,0,0-.79,1.05c-.37.86.05,2.07-.69,2.63s-2-.52-3-.88A2.16,2.16,0,0,0,276,199Zm1.51-25.61a18.55,18.55,0,0,1,.62-2.21,12.44,12.44,0,0,0-1.46-10.14c-2,.62-2.63,3.32-4.42,4.47-.36.23-.76.4-1.11.64a5.58,5.58,0,0,0-1.58,2.15c-.62,1.19-1.25,2.52-.91,3.82a1.08,1.08,0,0,0,.29.56,1.25,1.25,0,0,0,.66.26c1.16.17,2.36-.15,3.5.11.53.12,1,.35,1.54.5a4.47,4.47,0,0,0,2.8-.16Z"/><path class="cls-1" d="M314.37,194.62c.71.13.67,1.19,1.17,1.71s1.3.37,2,.58,1.1.7,1.71.93a2.84,2.84,0,0,0,3-1.1,8.3,8.3,0,0,0,1.27-3.15l1.27-5.09a11.83,11.83,0,0,0,.46-2.7,13.63,13.63,0,0,0-.76-3.86,32.28,32.28,0,0,1-1.26-11.76c.44-4.8,2.24-9.51,1.71-14.3a3.27,3.27,0,0,0-1.21-2.54c-1.1-.69-2.56,0-3.53.84s-1.82,2-3.07,2.34a4.17,4.17,0,0,0-1.1.36,2.44,2.44,0,0,0-.83,1.52,82.4,82.4,0,0,0-2.41,14.89c-.45,0-.78-.43-.88-.86s0-.88-.08-1.32c-.16-1.32-1.3-2.29-1.77-3.53-.63-1.68.07-3.53.25-5.32a8.34,8.34,0,0,0-3.77-8,6.83,6.83,0,0,0-8.47,1.23c-1.62,1.93-1.87,4.61-2.17,7.11-1.26,10.55-4.6,20.81-5.37,31.41-.07,1,0,2.26.86,2.8a2.81,2.81,0,0,0,1.41.31l2.85.14a7.92,7.92,0,0,0,3.69-.41c2.37-1.08,3.05-4.08,3.44-6.66l1.3-8.79c.09-.58.44-1.34,1-1.16a1.06,1.06,0,0,1,.52.56c1.54,2.9,3.13,5.95,3.18,9.24a5.13,5.13,0,0,0,.34,2.44,1,1,0,0,0,.54.51c.62.19,1.09-.53,1.33-1.12l4-9.79c.63,1.65.28,3.48.05,5.22a36.27,36.27,0,0,0-.13,8Z"/><path class="cls-1" d="M370.62,152.3a5.09,5.09,0,0,0-3.39,2.78,18.9,18.9,0,0,0-1.4,4.31c-.74,2.9-1.95,6-4.6,7.42-3.06,1.65-6.78.43-10.25.19-2-.14-4.54.44-5.06,2.41a1.18,1.18,0,0,0,0,.67c.16.48.72.68,1.22.79a20.65,20.65,0,0,0,8.54.16,35,35,0,0,1-3.34,6,4.91,4.91,0,0,1-1.83,1.79c-.95.43-2.06.26-3,.59-2.25.76-2.89,3.63-2.8,6a3.06,3.06,0,0,0,1.12,2.68,2.89,2.89,0,0,0,1.82.19c5-.66,9.68-4,14.75-3.57-2.79,2.62-3.26,6.88-5.35,10.1A11.59,11.59,0,0,1,346.66,200a20.08,20.08,0,0,0-4-.26c-1,.12-1.86.49-2.81.66a5.81,5.81,0,0,1-6-2.64,8.33,8.33,0,0,1-.76-4.34c.27-8.27,4.23-16.5,2.26-24.53a21,21,0,0,1-.76-3.39,7.88,7.88,0,0,1,2.66-6.19,12.61,12.61,0,0,1,6.23-2.91,7.64,7.64,0,0,1,4.32.2c1.11.45,2,1.3,3.12,1.77a7.36,7.36,0,0,0,4.92,0c1.59-.49,3.09-1.27,4.67-1.81s3.34-.86,4.95-1.47a19.59,19.59,0,0,0,4.62-2.57Z"/><path class="cls-1" d="M379.67,157.78l-2,4.31a7.14,7.14,0,0,0-1,3.85c.19,1.56,1.38,2.82,1.8,4.33.79,2.83-1.19,5.58-2.74,8.08a31.83,31.83,0,0,0-4.59,14c-.23,2.77.06,5.91,2.16,7.73a1.28,1.28,0,0,0,.79.38,1.5,1.5,0,0,0,.72-.24,13,13,0,0,0,3.73-2.8,12.86,12.86,0,0,0,2.25-4.82,58.56,58.56,0,0,0,2.3-13.85c.14-3.33,0-6.72.93-9.93.38-1.33.94-2.62,1.25-4a22.78,22.78,0,0,0,.35-5.41,3.68,3.68,0,0,0-.46-2.13,2.55,2.55,0,0,0-2.83-.76,7.45,7.45,0,0,0-2.62,1.7Z"/><path class="cls-1" d="M384.68,157a11.41,11.41,0,0,1,4.54-.23,5.59,5.59,0,0,1,3.75,2.38,8.94,8.94,0,0,0,1.5,2.43,5.69,5.69,0,0,0,1.77.81,8.86,8.86,0,0,1,6,8c0,3.54-3.11,6.94-6.64,6.79a2.45,2.45,0,0,0-.94.06c-.69.27-.83,1.18-.8,1.92.12,3.6,1.56,7,3.25,10.22a11,11,0,0,1,1.68,4.64,2.32,2.32,0,0,1-.54,1.74,2.25,2.25,0,0,1-1,.51,6.62,6.62,0,0,1-5.16-.81,13.3,13.3,0,0,1-3.85-3.7c-3.15-4.26-2.68-10.32-5.68-12.32-.73-.49-1.48-4.26-1-5,.71-1.09,4.05-1.41,5.36-1.4a11,11,0,0,0,3.88-.23,4.43,4.43,0,0,0,2.63-4.37,6.37,6.37,0,0,0-2.67-4.56c-1.46-1.09-4.41-1.14-6.2-1.44Z"/><path class="cls-1" d="M418,157.39l1.09,10.88a34.78,34.78,0,0,1,.2,7.56,33.8,33.8,0,0,1-1.41,5.84L415.94,188a60.78,60.78,0,0,1-3.05,8.48c-.6,1.28-1.62,2.69-3,2.56a3,3,0,0,1-1.51-.72c-2.83-2.25-3.71-6.27-3.18-9.84s2.21-6.84,3.74-10.11c.87-1.85,1.67-4.1.58-5.82-.5-.77-1.32-1.3-1.78-2.1a5.63,5.63,0,0,1-.53-2.54c-.12-2.63-.11-5.4,1.16-7.69a2.09,2.09,0,0,1,1.3-1.16c.33-.06.68,0,1,0,1-.16,1.37-1.28,2-2a3.1,3.1,0,0,1,4.81.64Z"/><path class="cls-1" d="M454.41,174.71c2.51-3.21,5.16-6.9,4.69-11a3.6,3.6,0,0,1-.92,3.28c-1.07-1.92-.31-4.33-.73-6.48-.6-3.11-3.66-5.27-6.79-5.77s-6.29.33-9.31,1.28a26.33,26.33,0,0,0-7.19,3.23,19.71,19.71,0,0,0-6.4,8.16,52.45,52.45,0,0,0-3.07,10,53.12,53.12,0,0,0-1.49,8.85c-.16,2.7.13,5.61,1.82,7.72a13.28,13.28,0,0,0,4.35,3.15q2.34,1.23,4.71,2.37a6.7,6.7,0,0,0,3.1.91c1.29-.05,2.42-.81,3.64-1.19,2.16-.69,4.62-.23,6.62-1.28s2.91-3.05,3.52-5.08.94-4.16,2-6c.26-.46.56-1.07.22-1.49s-1.1-.18-1.61.11a17.89,17.89,0,0,1-5.37,2.32,7.12,7.12,0,0,1-5.63-1c-.89-.66-1.62-1.61-2.69-1.89a21,21,0,0,1-2.54-.32c-1.61-.65-1.64-2.91-1.2-4.59,1.24-4.72,4-8.89,6.64-13a3.94,3.94,0,0,1,1.49-1.54,4.05,4.05,0,0,1,1.73-.22l3.18.09a1.53,1.53,0,0,1,1.18.37c.25.3.23.74.38,1.11.46,1.18,2.27,1.11,3.09,2.09s.41,2.08.26,3.15.06,2.48,1.11,2.77Z"/><path class="cls-1" d="M490.69,197.87a6.3,6.3,0,0,1-6.08.73,10.68,10.68,0,0,1-4.82-4.06,4.32,4.32,0,0,1-.84-1.82c-.2-1.53,1-3.12.38-4.52s-2.39-1.82-2.44-3.19c0-.3.07-.62-.1-.87-.38-.56-1.21.08-1.53.67a28.75,28.75,0,0,0-2.72,7.51,15.65,15.65,0,0,1-1,3.52,3.85,3.85,0,0,1-2.65,2.29c-1.55.28-3-.78-4.58-1a6,6,0,0,0-3.57.78,9.41,9.41,0,0,1-2.71,1.26,2,2,0,0,1-2.34-1.34,2.55,2.55,0,0,1,.27-1.29c.65-1.57,1.5-3.06,2.21-4.6,3.58-7.7,3.9-16.72,8.18-24.05a50.26,50.26,0,0,1,5.3-7,43.13,43.13,0,0,1,5.5-5.72,42.37,42.37,0,0,1,4.51-3.1,1.3,1.3,0,0,1,1.19-.26c.52.28.39,1,.42,1.63a3.66,3.66,0,0,0,2,2.69,14.66,14.66,0,0,1,2.9,1.9,6.37,6.37,0,0,1,1.46,4.36c0,1.57-.22,3.14-.08,4.7.25,2.84,1.73,5.47,1.87,8.32a47.08,47.08,0,0,1-.44,5.15c-.18,3,.57,6,1.05,8.95s.66,6.14-.59,8.88Zm-6.31-31.16a4.17,4.17,0,0,0-2.12-2.78c-1.34-.91-3.14-1.7-4.5-.82a4.85,4.85,0,0,0-1.55,2.28,32.78,32.78,0,0,1-4.43,7.24,4.68,4.68,0,0,0-1.08,1.79,1.47,1.47,0,0,0,.78,1.76,2.32,2.32,0,0,0,1.71-.37,12.6,12.6,0,0,1,3.6-1.14c1.33-.22,2.89-.14,3.75.89.2.24.39.55.7.56s.52-.27.69-.52c1.35-2,2.72-4.22,2.68-6.65,0-1.33-.46-2.66-.26-4Z"/><path class="cls-1" d="M529.26,195.91c-1.14,1.1-1.82,2.68-3.15,3.56a4,4,0,0,1-4.35,0c-.83-.54-1.65-1.43-2.6-1.17a3.66,3.66,0,0,1-1,.31,1.4,1.4,0,0,1-1-.74c-3.66-5.21-3.8-12-3.8-18.41.19,2.71-2,4.89-3.18,7.34a30.2,30.2,0,0,0-1.63,5.72,10,10,0,0,1-2.69,5.21c-1.48,1.32-3.9,1.77-5.46.53a3.38,3.38,0,0,0-1.23-.84c-.63-.13-1.38.26-1.89-.13a1.35,1.35,0,0,1-.39-1.12c0-3.45,2.13-6.59,2.32-10,.06-1-.07-2.09.08-3.12a18.31,18.31,0,0,1,1.79-4.67,36.9,36.9,0,0,0,1.89-6.08L506,160c.37-1.47,1.12-3.26,2.64-3.28A8.5,8.5,0,0,1,510,157c2,.3,3.8-1.5,5.84-1.53a4.58,4.58,0,0,1,3.43,1.81,11.41,11.41,0,0,1,1.77,3.58,53.81,53.81,0,0,1,2.91,15.38c0,.46.1,1,.52,1.22.7.32,1.23-.69,1.35-1.45l1.77-11.3c.4-2.53,1-5.43,3.34-6.59a4.16,4.16,0,0,1,4.5.56,4.53,4.53,0,0,0,1.13.89c.88.35,2.05-.17,2.72.49a1.93,1.93,0,0,1,.42,1.39c.13,6.92-3.63,13.27-5,20.05-.87,4.44-.86,9.43-3.89,12.79-1.15,1.29-2.74,2.3-3.34,3.92Z"/><path class="cls-1" d="M605.28,152.05c2.61,1.74,6,1.76,9.1,1.73l4.45-.05c1.47,0,3.3.22,3.75,1.62a3.14,3.14,0,0,1-1.07,2.86,14,14,0,0,1-8.91,4.46c-3.18.31-7-.23-9,2.29a8.24,8.24,0,0,0-1.18,2.59l-3.8,11.71a7.3,7.3,0,0,0-.49,4.2c.38,1.34,1.47,2.33,2.11,3.56A6,6,0,0,1,596,195.3a3.85,3.85,0,0,1-3.18-.89c-.83-.83-1.07-2.06-1.58-3.11s-1.5-2.13-2.06-3.31c-1.18-2.5-.49-5.45.22-8.13l3.49-13.11c.09-.37.17-.81-.09-1.07s-1-.06-1.43.18c-3.11,1.71-6.9-.16-9.94-2a4,4,0,0,1-1.24-1c-.71-1-.36-2.4.17-3.5C582.48,155,587,152,591.81,151a26.4,26.4,0,0,1,14.41,1.63Z"/><path class="cls-1" d="M638.92,175.33c1.32,5.38,2,11.29-.37,16.29a5.77,5.77,0,0,1-3.13,3.21,13.16,13.16,0,0,1-2.44.34c-2.77.34-5.3,2.13-8.09,2a2.51,2.51,0,0,1-1.29-.36,3.22,3.22,0,0,1-.9-1.13,15.38,15.38,0,0,1-2.31-5.67,18,18,0,0,1,.2-4.2,61.35,61.35,0,0,0,.4-9.29,9.94,9.94,0,0,1,.2-3.13,8.8,8.8,0,0,1,1.13-2.25q3.7-5.91,7.82-11.55c1.76-2.42,3.75-4.93,6.59-5.88a13,13,0,0,1,6-.2,5.29,5.29,0,0,1,2.22.68c1.56,1.05,1.64,3.26,1.57,5.13a9,9,0,0,1-1,4.43,25.57,25.57,0,0,1-1.68,2.06c-1,1.33-1.44,3-2.32,4.38-.72,1.13-1.71,2.07-2.39,3.22a3.78,3.78,0,0,0-.31,3.8c.07.12.29.21.31.08Zm-6.38,4.93a18.32,18.32,0,0,1,.53-5.85,12.55,12.55,0,0,0,.54-2.56c.06-1.25-.35-2.53,0-3.72.22-.67.68-1.36.43-2a1.44,1.44,0,0,0-1.93-.57,4,4,0,0,0-1.52,1.63,70.83,70.83,0,0,0-3.47,6.27,13.91,13.91,0,0,0-1.41,4,5.28,5.28,0,0,0,.91,4,2.27,2.27,0,0,0,1.1.81,4.66,4.66,0,0,0,1.24.06,7.17,7.17,0,0,0,2.27-.09c.73-.25,1.32-1.11.94-1.77Z"/><path class="cls-1" d="M657.52,161.11q-3.57,5.26-6.94,10.67c-.27.42-.51,1-.16,1.37a1.13,1.13,0,0,0,.75.22,18.23,18.23,0,0,0,4.36-.37,11.36,11.36,0,0,1-1.76,5.57,30.27,30.27,0,0,0-1.72,2.67,11.82,11.82,0,0,0-.91,3.62q-.5,3.79-.62,7.61c0,1.12,0,2.4.86,3.14,1.14,1,2.87.38,4.38.35,2.33,0,4.38,1.43,6.21,2.87a4.27,4.27,0,0,0,2.69,1.22,9.24,9.24,0,0,0,2.27-.82c1.49-.5,3.15,0,4.66-.42a7,7,0,0,0,3.72-3.18,23.16,23.16,0,0,0,3.87-13.56,5.08,5.08,0,0,1,.08-1.51,8,8,0,0,1,.83-1.68c2.23-4.14-.61-9.84,2-13.72.86-1.26,2.32-2.47,2-3.95-.25-1.09-1.38-1.71-2.39-2.19-1.31-.62-2.89-1.23-4.14-.51a3.43,3.43,0,0,0-1.47,2.77c-.08,1.08.1,2.18,0,3.26-.19,3.43-2.71,6.24-3.78,9.5a16.5,16.5,0,0,1-1.07,3c-.67,1.16-1.8,2-2.34,3.24-.72,1.61-.27,3.46,0,5.2a1.18,1.18,0,0,1-.14,1,1.07,1.07,0,0,1-.69.28,3.93,3.93,0,0,1-4-1.94,4.4,4.4,0,0,1,.15-3.53c.46-1.13,1.17-2.13,1.72-3.21a10.16,10.16,0,0,0,.85-7.17,15.38,15.38,0,0,1-1-3.66c0-1.77,1-3.45.85-5.22s-1.56-3.12-2.85-4.33a2.7,2.7,0,0,0-1-.7,2.47,2.47,0,0,0-2,.5,11.64,11.64,0,0,0-2.69,2.36c-.44.54-.8,1.44-.23,1.84"/><path class="cls-1" d="M698.07,163.41a5.54,5.54,0,0,0,.64-3.18.61.61,0,0,0-.2-.37c-.23-.17-.55,0-.78.14a21.76,21.76,0,0,0-4.54,3.66,7.75,7.75,0,0,0-2.09,5.3.56.56,0,0,0,.67.61l2.93.22a3.23,3.23,0,0,1,1.23.26,2.48,2.48,0,0,1,1.12,1.6,7.93,7.93,0,0,1-.68,5.27c-.73,1.65-1.76,3.16-2.57,4.77a27.81,27.81,0,0,0-2.47,8.44,48.2,48.2,0,0,0-.5,5.23,4.61,4.61,0,0,0,.17,1.74,3.23,3.23,0,0,0,2.15,1.85,9.76,9.76,0,0,0,2.91.28l6.11,0c2,0,4.24-.14,5.52-1.65a5.46,5.46,0,0,0,1-3.72c0-1.31-.29-2.62-.23-3.94.11-2.47,1.31-4.82,1.25-7.29-.06-2.26-1.18-4.35-1.67-6.56-.36-1.61-.39-3.28-.76-4.88-.26-1.17-.71-2.29-.91-3.47-.43-2.6.36-5.23.67-7.85a1.94,1.94,0,0,0-.15-1.26,2.07,2.07,0,0,0-1.7-.73,12.27,12.27,0,0,0-3.92.13,5,5,0,0,0-3.18,2.13"/><path class="cls-1" d="M691.4,157.05a15.49,15.49,0,0,1,5.22-.1,28.17,28.17,0,0,0,5-.14c1.45-.16,2.89-.45,4.35-.58a44.74,44.74,0,0,1,5.18-.08l12.75.33a10,10,0,0,0-.22,3.27,3.41,3.41,0,0,0,1.77,2.62c.72.32,1.6.32,2.2.84a2.77,2.77,0,0,1,.75,1.46,11.45,11.45,0,0,1-.29,6.38,3.18,3.18,0,0,1-.94,1.54,3.75,3.75,0,0,1-1.44.57l-3.51.83c-1.94.46-4,.91-5.9.27.59,1.56,2.16,2.52,3.15,3.86s1.37,3.06,2,4.6,1.87,3.06,3.54,3.26c.54.06,1.09,0,1.62.07a1.36,1.36,0,0,1,1.18,1,1.46,1.46,0,0,1,0,.55,37.1,37.1,0,0,1-2.06,8c-.38,1-.94,2.14-2,2.4a2.72,2.72,0,0,1-2.33-.77c-.64-.56-1.14-1.27-1.8-1.81-1.18-1-2.75-1.37-4.06-2.19a7,7,0,0,1-2.89-3.73c-.93-2.91,0-6.45-1.84-8.87-.81-1-2-1.72-2.76-2.84a7.32,7.32,0,0,1-.83-2.42l-1.1-5c1.72-1.24,4.06-.91,6.17-.75s4.64-.08,5.72-1.9a4.11,4.11,0,0,0-1.05-4.93,8.59,8.59,0,0,0-5-1.88,18.25,18.25,0,0,0-3.84,0,6.86,6.86,0,0,1-2.26,0,8.69,8.69,0,0,1-1.87-.9c-3.9-2.09-8.81-.83-13-2.27-.64-.22-1.35-.61-1.44-1.28"/><path class="cls-1" d="M772.67,168.24a8.15,8.15,0,0,0-1.54,3.4,1.89,1.89,0,0,0,0,.82,1.69,1.69,0,0,0,.79.88,7.47,7.47,0,0,0,6.5.21,57.43,57.43,0,0,0,6-3.14,9.94,9.94,0,0,1,6.48-1.3,3.3,3.3,0,0,1,1.48.68c1,.91,1,2.53.67,3.87-.94,3.82-3.45,7-6,10a19.74,19.74,0,0,1-3.08,3c-1,.73-2.1,1.28-3.14,1.94a38.58,38.58,0,0,0-6.82,6l-7.3,7.46c-.51.53-1,1.36-.54,1.9a1.27,1.27,0,0,0,1.07.29c2.14-.16,4-1.6,6-2.19,5.14-1.47,10.59,2.5,15.81,1.34,1.22-.26,2.36-.8,3.58-1.06,4.79-1,10.06,2.46,14.45.31a3.56,3.56,0,0,0,2-2.18,4.63,4.63,0,0,0,0-1.78l-.77-6.31a1.59,1.59,0,0,0-.34-1,1.68,1.68,0,0,0-1.38-.26c-5.91.72-12.15,2-17.64-.28a14,14,0,0,0,7-5.82c1-1.67,1.75-3.66,3.43-4.63.68-.38,1.46-.57,2.11-1a6.29,6.29,0,0,0,1.9-2.39,42.13,42.13,0,0,0,2.73-6.24,5.65,5.65,0,0,0,.42-3c-.59-2.66-4.28-3.37-5.57-5.77-1-1.89-.35-4.52-1.81-6.09s-3.86-1.1-5.86-.58l-6.94,1.83c-3.31.87-6.77,1.82-9.23,4.2a20.35,20.35,0,0,0-2.79,3.66,23.31,23.31,0,0,0-2.25,4.06Z"/><path class="cls-1" d="M816.51,179.89a11.33,11.33,0,0,1,1.32-3.4,11.27,11.27,0,0,0,.92-6,13.11,13.11,0,0,1-.23-2.56,6.89,6.89,0,0,1,1.63-3.51c2.49-3.24,5.86-5.67,9.19-8.06a14.48,14.48,0,0,1,3.08-1.87,7.73,7.73,0,0,1,5.11-.22,4,4,0,0,1,2.53,1.91c.39.84.33,1.84.73,2.68s1.32,1.5,1.67,2.42a4.5,4.5,0,0,1,.06,2.25,66.88,66.88,0,0,1-2.42,12,22.22,22.22,0,0,0-1.15,4,16.17,16.17,0,0,0,1,6.93,21.93,21.93,0,0,1,1.37,6.89c-.06,2.35-1.12,4.84-3.22,5.9a6.85,6.85,0,0,1-3.13.62c-2.63,0-5.2-1-7.83-.94-1.47.06-2.92.47-4.39.41a11.89,11.89,0,0,1-5.14-1.78,4.56,4.56,0,0,1-1.8-1.5,4.8,4.8,0,0,1-.22-3.25l2.72-16.08m11.94-13.05c-2.64,1.33-3.9,4.38-4.52,7.27a30.74,30.74,0,0,0,1,16.57,2.44,2.44,0,0,0,1,1.45,1.74,1.74,0,0,0,1.94-.42,4.94,4.94,0,0,0,1-1.83,35,35,0,0,0,2.53-8.37,28.88,28.88,0,0,0,0-5.88,9.32,9.32,0,0,0-.56-3c-.68-1.61-2.23-3.09-1.8-4.78Z"/><path class="cls-1" d="M855.33,166.49a9.63,9.63,0,0,1-.87,6.48,28.41,28.41,0,0,1-3.76,5.49,23.27,23.27,0,0,1,6.92,1.24,1.22,1.22,0,0,0,.77.09,1.17,1.17,0,0,0,.5-.44l7.37-9.51q-1.59,6-3.49,11.82a32.87,32.87,0,0,1-1.82,4.72c-2.72,5.34-8.06,9.07-10.43,14.57a18.22,18.22,0,0,1,8.57-1.39,73.25,73.25,0,0,0,8.76.19,9.8,9.8,0,0,1-.32-4.79c1.09-9.66,4.2-19,5.55-28.62.39-2.77.63-5.57.87-8.35l.56-6.6c-2.33,1.83-3.7,4.65-6,6.59-2.61,2.23-6.1,3-9.25,4.42a8.11,8.11,0,0,0-3.17,2.16c-1.15,1.47-1.32,3.45-1.45,5.31"/><path class="cls-1" d="M886.45,160.2a11.85,11.85,0,0,1,3.93-3.51,30.84,30.84,0,0,1,11.4-4.52,18.53,18.53,0,0,1,12,1.9A7.67,7.67,0,0,1,917,157.2c1.15,2.35.35,5.21-1,7.45s-3.19,4.18-4.34,6.52-1.47,5.4.21,7.41a11.36,11.36,0,0,0,3.42,2.34,12.48,12.48,0,0,1,3.42,2.61,13.54,13.54,0,0,1,2.77,6.7,9.48,9.48,0,0,1,0,4.14,3.87,3.87,0,0,1-2.75,2.84c-1.37.27-2.72-.45-4.09-.68-2.19-.36-4.37.55-6.52,1.1-4.09,1.07-8.4.91-12.62.74l-7.39-.29a4.69,4.69,0,0,1-2.43-.54c-1.19-.79-1.4-2.47-1.17-3.88.56-3.47,3-6.39,6-8.34,1.4-.94,2.92-1.7,4.25-2.74a7,7,0,0,0,2.8-4.08,3.8,3.8,0,0,0-2-4.21,8.45,8.45,0,0,0-2.8-.27,10.5,10.5,0,0,1-4.39-1.12,5.16,5.16,0,0,1-2.12-1.77,6.15,6.15,0,0,1-.67-3.32,24.9,24.9,0,0,1,1.53-8.18c.09-.27.41-.59.6-.37Zm10.25.5a10.22,10.22,0,0,0-2.41,2.32,3.53,3.53,0,0,0-.51,3.19c.61,1.52,2.47,2.11,4.11,2.1,2.71,0,5.27-1.16,7.74-2.28,1.83-.83,3.82-1.82,4.57-3.67a4.11,4.11,0,0,0-2.06-5.12,7.68,7.68,0,0,0-3.17-.44,14,14,0,0,0-4.27.55,5.43,5.43,0,0,0-3.26,2.65Zm11.17,20.14a5.73,5.73,0,0,0-3.87-.35,11.37,11.37,0,0,0-3.58,1.67A9.49,9.49,0,0,0,896.8,186a4.48,4.48,0,0,0,.67,5,3.48,3.48,0,0,0,3,.92,15,15,0,0,0,2.21-.8,6.3,6.3,0,0,1,4-.06,3.19,3.19,0,0,0,2.16.3,2.3,2.3,0,0,0,1.13-1.87,9.69,9.69,0,0,0-2.52-8.15Z"/></g></g></svg>