<?xml version="1.0" encoding="utf-8"?>
<!-- Generator: Adobe Illustrator 22.0.1, SVG Export Plug-In . SVG Version: 6.00 Build 0)  -->
<svg version="1.1" id="Layer_1" xmlns="http://www.w3.org/2000/svg" xmlns:xlink="http://www.w3.org/1999/xlink" x="0px" y="0px"
	 viewBox="0 0 938 243.7" style="enable-background:new 0 0 938 243.7;" xml:space="preserve">
<style type="text/css">
	.st0{fill:#6A5845;}
</style>
<title>Asset 2</title>
<path class="st0" d="M52.7,114.7c2.9,2.3,7.2,2.2,10.6,0.7c3.4-1.5,6.1-4.1,8.7-6.7c1.1-1.1,2.1-2.2,3-3.5
	c4.5-6.7,1.4-15.7-1.8-23.1c-2-4.5-4-9.3-3.9-14.2c0.1-3.9,1.5-7.7,2.9-11.4c3-7.8,7.1-16.7,15.3-18.8c2.6-0.6,5.3-0.5,8-1
	c3.7-0.6,7-2.8,9-6c1.8-3.3,1.5-7.8-1.3-10.3c-2-1.9-4.8-2.5-7.5-2.9c-11.2-1.8-22.5-2.4-33.8-1.8c-7.2,0.4-14.6,1.4-20.6,5.4
	c-10.7,7.2-13.6,21.4-15.5,34.2c4.7-2.6,9.6-5,14.5-7.1c1.8-0.7,3.9-1.4,5.5-0.4c0.9,0.7,1.6,1.6,1.9,2.7c3.8,10.5-3.2,22.4,0.2,33
	c1,3.1,2.9,6,3.3,9.2c0.6,4.5-1.5,8.9-2.3,13.3c-0.7,4.5,1,10.3,5.5,11L52.7,114.7z"/>
<path class="st0" d="M132.7,108.8c3.6-7.8,5.8-16.2,6.3-24.8c0.2-3,0.3-6.2,2.1-8.5c2.1-2.6,5.9-3.2,9.3-3.2c2.5,0,5,0.2,7.1,1.5
	c2.1,1.3,3.5,4,2.6,6.3c-0.9,2.3-3.8,3.9-3.4,6.3c0.3,0.9,0.7,1.8,1.3,2.5c2.3,3.8,0.4,8.6-0.7,12.8c-0.9,3.5-1.2,7.2-1,10.8
	c0.1,1.2,0.3,2.5,1.3,3.1c0.7,0.3,1.4,0.5,2.1,0.5l15.8,0.5c0.7,0.1,1.3,0,1.9-0.3c1.2-0.8,0.8-2.5,0.7-3.8
	c-0.5-5.7,4.9-10.4,5.8-16.1c0.7-4.3-1.2-8.8-0.6-13.1c0.4-2.4,1.5-4.7,2.1-7c2.1-7.7-1.4-15.9-0.9-23.8c0.3-4.3,1.8-8.4,3.2-12.4
	l9.2-25.6c-11.5,2.6-23.4,3.2-35.2,1.9c3.9,12.3,3.5,25.7-1.1,37.7c-7.3-3.3-15.8-3-22.9,0.8c-1.1-2.1,2.8-3.6,3.2-5.9
	c0.4-2.3-2.6-3.6-3.7-5.6c-1.4-2.7,0.8-5.8,2.1-8.6c2.1-4.7,1.4-10.1,0.7-15.2c-4,1.6-8-2.2-12.2-3.3c-4.1-1-8.5,0.3-11.4,3.3
	c-2.8,3.1-4.3,7.2-4,11.4c1.5,1.1,4.2-1.3,5.4,0.2c0.9,1.1-0.4,2.5-1.3,3.6c-3.9,4.8,0.7,11.7,0.2,17.9c-0.3,1.9-0.7,3.7-1.3,5.5
	c-1.9,7.1-1.3,14.6-0.7,22c0.2,1.9,0.2,3.8-0.1,5.7c-0.4,1.4-0.8,2.8-1.4,4.2c-2.5,6.4-3.7,13.3-3.4,20.1c1-0.9,2.6,0,3.2,1.2
	c0.6,1.2,0.7,2.5,1.6,3.5c0.6,0.6,1.3,1.1,2.1,1.4c6.7,2.7,14.3-0.6,16.9-7.3c1.1-2.7,1.2-5.6,0.4-8.4L132.7,108.8z"/>
<path class="st0" d="M279.9,26.3c-5.1-4.7-12.2-6.5-18.9-4.9c-1,0.4-2.1,0.6-3.3,0.6c-1.9-0.1-3.7-1.5-5.7-1.2
	c-0.6,0.2-1.3,0.2-1.9,0.1c-0.7-0.2-1-1-1.4-1.6c-1.2-1.7-2.9-3.1-4.8-4.1c-7.1-4.1-15.6-6-23.6-4.2s-15.3,7.3-18.2,15
	c-1.5,4.1-1.9,8.6-3.7,12.5c-1.1,2.4-2.8,4.5-3.9,6.9c-1.1,2.4-1.5,5.4-0.1,7.6c0.6,1,1.6,1.8,2,2.9c0.9,2.6-1.6,5.1-1.5,7.8
	c0.1,2.1,1.7,3.8,2.2,5.8c1,3.6-1.7,6.9-3.2,10.2c-2.8,5.8-2.5,12.6-2.3,19.1c0,1.3,0.2,2.6,0.8,3.8c0.7,0.9,1.4,1.8,2.1,2.7
	c1.6,2.3,1.5,5.3,1.7,8.1c0.2,2.8,1,5.9,3.4,7.2c2,1,4.5,0.5,6.5-0.5s3.9-2.4,6.1-3c6.2-1.9,13.3,2.5,19.1-0.4
	c3-1.4,4.9-4.5,7.8-6.1c3.8-2.1,9.3-1.9,11.3-5.8c1-1.8,0.8-4.2,1.8-5.9c1.1-1.8,3.2-2.6,4.6-4.1c3.1-3.1,3.1-8.5,6.4-11.3
	c-2.3-2-5.8-1.4-8.5-0.1c-5.9,2.8-10.7,8.2-17.1,9.3c-4,0.7-8.3-0.2-11.9,1.7c-1.8,1-3.5,2.7-5.5,2.5c-1.1-0.2-2.1-0.5-3.1-1
	c-3.1-0.9-6.3,0.4-7.9,3.2l7.8-3.1c-2.9-4.7-2.9-10.6,0-15.3c0.9-1.1,1.6-2.3,2.3-3.6c1.6-3.5,0.1-8,2.1-11.3c0.2-0.4,0.6-0.8,1-1
	c0.8-0.2,1.7-0.2,2.5,0.2c2.3,0.8,4.6,1.4,7,1.9c1,0.3,2.1,0.3,3.1-0.1c1.2-0.5,1.9-1.7,2.6-2.9c3.6-5.9,8.8-10.5,15-13.5
	c1.3-0.5,2.6-1.3,3.7-2.2c1.1-1,1.6-2.5,1.2-3.9c-9.4,3.3-18.6,7.2-27.5,11.6c-2,1-5,1.7-6-0.3c-0.3-0.6-0.3-1.5-1-1.9
	c-1.4-1.1-3.9,1.7-5,0.3c-0.2-0.3-0.3-0.6-0.3-1c-0.8-7.3,0.9-10.2,3.8-17c0.1,1.8,4.6-2.7,4.8-1c-1.2-1.8-0.5-1.2,1.2-2.6
	c1.7-1.4,3.9-1.8,6.1-2.2c4.4-0.7,9.4-1,12.7,1.9c0.4,0.4,0.8,0.7,1.3,1c0.8,0.2,1.6,0.2,2.3,0l20.9-4c3.3-0.5,6.5-1.3,9.6-2.3
	L279.9,26.3z"/>
<path class="st0" d="M371.7,27.9c0.7-2.2,3.7-2.7,5.9-2s4.2,2.1,6.6,2.1c0.6-0.1,1.1,0,1.6,0.3c1.1,0.7,0.7,2.5,1.6,3.3
	c0.4,0.3,0.8,0.5,1.2,0.5c1.8,0.3,3.7,0.1,5.6,0.3c1.9,0.2,3.8,1,4.7,2.7c0.3,0.7,0.5,1.4,0.5,2.2c1.2,11-0.7,22-5.6,31.9
	c3.4-0.7,6.9-0.3,10.1,1.1c1.7,0.9,3.4,1.7,5.2,2.4c1.8,0.6,4.1,0.4,5.4-1c0.7-0.9,1.3-2,1.5-3.2l4-13.9c0.9-2.6,1.4-5.2,1.4-8
	c0-1.4-0.3-2.9-0.4-4.2c-0.3-4.2,1.2-8.8,4.8-11s9.2-0.7,10.4,3.3c0.7,2.4-0.1,4.8-0.6,7.2c-0.6,3-0.6,6.3,0.9,9
	c0.9,1.5,2.2,2.8,2.7,4.4c0.4,1.7,0.3,3.5-0.3,5.2c-1.8,6.5-4.8,12.8-5,19.5c-0.1,3.3,0.4,6.7,0.1,10c-0.2,2.6-1,5.1-1.4,7.6
	c-1,6.2-0.4,12.5,1.9,18.4c0.4,0.7,0.5,1.6,0.4,2.4c-0.2,0.4-0.4,0.8-0.8,1.1c-4.1,4.4-10.6,7.5-16.2,5.3c-3.2-1.2-5.6-4-7.8-6.7
	c-1-1-1.7-2.2-2.3-3.5c-1-2.7,0.1-5.7-0.1-8.6c-0.1-1.6-0.6-3.2-0.3-4.8c0.2-1,0.6-2,1-2.9c1.3-3.3,1.9-6.8,1.7-10.4
	c-4-0.2-8-1.3-11.5-3.2c-1.5-0.8-3-1.8-4.7-1.5c-1.9,0.4-3,2.4-3.3,4.3s0.1,3.8,0,5.8c-0.2,3.8-2.4,7.2-2.7,10.9
	c-0.3,3.2,0.8,6.4,1,9.6c0.1,1.2-0.1,2.4-0.6,3.4c-0.7,1-1.7,1.8-2.7,2.4l-7.5,4.6c-1.3,0.8-3,1.6-4.2,0.7c-0.7-0.5-1-1.5-1.6-2
	c-1.2-1-3.1-0.3-4.6-0.8c-0.5-0.2-1-0.4-1.4-0.8c-3.2-2.5-4.3-7-3.7-11.1s2.5-7.7,4.2-11.4c10-22.4,11.7-47.7,4.8-71.3
	c-0.3-1-0.5-2,0.3-2.6c0.3-0.2,0.7-0.3,1-0.4c2.9-0.5,6,0.3,8.3,2.1L371.7,27.9z"/>
<path class="st0" d="M499.1,37c-1.5,4.2-2.6,8.4-3.5,12.7c-1.1,5.4-1.6,10.9-2.2,16.4c-0.3,2.3-0.4,4.6-0.3,7
	c0.3,5.1,2.3,10,2.2,15.1c-0.1,4.2-1.8,8.3-2.5,12.4c-0.4,2.4-0.6,4.9-1,7.3c-1.2,6.1-4.4,12.2-3.1,18.3c0.1,0.5,0.3,1,0.7,1.4
	c0.4,0.3,0.8,0.5,1.3,0.5c2.4,0.4,4.9,0.2,7.2-0.7c1.6-0.6,3.2-1.6,4.9-1.6c1.1,0,2.2,0.3,3.2,0.7l6.8,2.3l0.2-0.4
	c4.2,0.3,7.5-4.1,7.9-8.3s-1-8.4-1.7-12.5c-0.4-2.2-0.5-4.4-0.5-6.6c-0.3-2.1,1.2-4.1,3.3-4.4c0.1,0,0.2,0,0.4,0
	c3.5-0.9,7.2-1.2,10.8-1l-2.7,17.3c-0.8,4.9-1.5,9.8-1.1,14.7c0,0.6,0.2,1.1,0.5,1.6c0.4,0.5,1,0.8,1.7,1c4.2,1,8.5-1.1,11.8-3.8
	c5.1-4.3,8.7-10,10.4-16.4c0.6-2.8,1.1-5.7,1.3-8.6l1.7-15.4c0.6-5.5,1.2-11,3.5-16c1-1.9,2.1-3.8,2.9-5.7c0.9-2.7,1.4-5.4,1.6-8.2
	l1.1-10.3c0.2-1.9,0.3-4.1-1.1-5.4c-1.4-1.3-3.4-1.2-5.1-0.7s-3.4,1.3-5.2,1.4c-2.2,0-4.3-1.2-6.5-1.2c-3.7-0.1-6.7,2.9-9,5.7
	c-1.8,2.2-3.7,4.5-4.3,7.3c-0.8,4,1,8,1.3,12c0.2,3.3-0.7,6.6-1.5,9.8c-0.4,1.3-0.9,2.8-2.1,3.3c-0.7,0.2-1.5,0.3-2.2,0.3
	c-2.3,0.3-4.4,2.2-6.7,1.6c-1.6-0.6-2.7-2-2.9-3.7c-0.1-1.6,0.1-3.3,0.6-4.9l3.9-15.6c0.4-1.3,0.6-2.7,0.4-4.1
	c-0.4-2.2-2-3.9-3.9-5.1c-1.8-1.2-3.8-2.2-5.5-3.6c-2-1.8-3.7-4.6-6.4-4.9c-1.8-0.2-3.7,0.8-5.3,0.1c-1.7-0.6-3.2-2.4-4.5-1.3"/>
<path class="st0" d="M629.2,54.6c-1.5-0.4-2.7-1.5-4-2.2c-2.7-1.6-6-1.9-9-0.9c-1.1,0.5-2.3,0.9-3.5,1c-1.8,0-3.3-1.2-5.1-1.7
	c-2.8-0.8-5.8,0.5-8.2,2.1c-7.1,4.8-11.9,12.3-13.1,20.8c-0.1,1-0.1,2,0.6,2.5c0.4,0.2,0.7,0.3,1.2,0.3c2.4,0.1,5.1-0.7,7.2,0.6
	c0.7,0.5,1.3,1.2,2,1.7c2.2,1.5,5.2,0.7,7.7,1.6c1.5,0.5,2.7,1.5,3.5,2.9c1.1,1.9,1,4.8-1,5.9c-2.2,1.4-5.1-0.1-7.6-1
	c-2.9-1-6.1-0.9-9.2-0.7c-1.2-0.1-2.3,0.2-3.4,0.8c-1.1,0.8-1.7,2.1-1.8,3.4c-0.2,1.3,0,2.7,0,4c-0.1,2.3-0.8,4.6-1,6.9
	c0,3.1,0.4,6.1,1.3,9.1c0.1,0.4,0.3,0.9,0.6,1.2c0.3,0.2,0.7,0.4,1,0.5c3.3,0.9,6.9,0.9,10.2,0.1c2.6-0.7,5-1.8,7.5-2.7
	c5.3-1.9,11-2.4,16.6-1.6l-0.1-0.4c-0.4,2.2-2.1,3.8-3.8,5.1c-1.7,1.3-3.8,2.3-5.2,3.9c-1.1,1.2-1.9,2.8-3.3,3.7
	c-1.4,0.9-2.9,1-4.3,1.7c-1.7,0.8-3,2.3-4.8,2.9c-1.2,0.3-2.5,0.5-3.7,0.4l-12.7-0.3c-3.1-0.2-6.1,0-9.2,0.6
	c-3.1,0.7-6.2,2.3-9.2,1.3c-2.5-0.9-4-3.4-4.5-6c-0.3-2.6,0-5.2,0.7-7.8c2.1-8.5,5.1-17,4.8-25.7c-0.1-1.3-0.1-2.7,0.1-4
	c0.4-1.6,1.1-3.1,2-4.5c2.3-3.6,4.9-7.5,4.9-11.8c-0.1-1.7-0.3-3.4-0.6-5c-0.7-7.9,3.2-15.5,10.1-19.4l-0.2-0.7c2-2,4.6-3.5,7.4-4.3
	c1.2-0.3,2.5-0.4,3.8-0.5l10.8-1c2.5-0.4,5.1-0.3,7.6,0.3c1.5,0.4,2.8,1.2,3.7,2.5c0.4,0.7,0.8,1.5,1.2,2.2c0.7,0.7,1.6,1.2,2.6,1.3
	c2.9,0.5,6.3-0.5,8.2,1.6c0.5,0.7,0.9,1.5,1.2,2.3l1.2,3.4c0.4,1.2,0.6,3-0.7,3.3"/>
<path class="st0" d="M679.6,46.6c-8.3,16.9-14.7,34.8-18.9,53.1c-0.6,2.5-0.9,5.7,1.2,7.2c1.7,1.2,4.1,0.5,6.1-0.2
	c6.5-2.3,13.8-4.4,20.2-1.9c2.5,1.1,4.8,2.5,6.9,4.3c1.3,1,2.5,2.2,3.4,3.7c1.6,2.9,1,6.5,0.3,9.8c-0.3,2.1-1.1,4.2-2.3,6
	c-1.3,1.7-3.7,2.9-5.7,2.1c-1.9-0.7-2.9-2.7-4.8-3.6c-2.5-1.2-5.5,0.1-8.3-0.1c-3-0.2-5.4-2.2-8.2-3.2c-5.1-1.8-10.9-0.2-15.4,2.9
	c-2.1,1.4-4.4,3.3-6.8,2.8c-0.9-0.3-1.8-0.6-2.6-1c-4.3-1.5-8.9,1.7-13.5,1.2c-0.2,0-0.3,0-0.5-0.1c-0.6-0.4,0-1.3,0.5-1.8
	c2.6-2.6,2.5-6.7,3.2-10.3c0.7-3.6,2.6-7.1,3.4-10.7c0.7-3,0.7-6.1,1.2-9.2c0.9-4.8,3.1-9.2,5.5-13.5c1.6-2.9,3.2-6.3,1.6-9.1
	c-0.9-1.5-2.5-2.3-3.3-3.8c-0.5-1-0.7-2.2-0.7-3.3c-0.2-7.2,2.5-14.1,5.2-20.8c0.4-1.4,1.2-2.7,2.3-3.6c1.6-1.1,3.7-0.8,5.6-0.8
	c3,0,5.9-1,8.8-1.7c2.9-0.7,5.9-1.3,8.9-0.7s5.7,2.7,6.4,5.6L679.6,46.6z"/>
<path class="st0" d="M743.8,39.8c-1.8,2.5-1,6,0,9l1.7,5.5c0.4,1,0.6,2,0.8,3.1c0.4,4.6-3.3,8.5-5.3,12.6
	c-3.7,7.5-2.3,16.9-6.2,24.3c-0.8,1.6-1.9,3-2.6,4.7c-0.8,1.6-0.9,3.5-0.3,5.2c0.9,1.7,2.6,2.9,4.5,3.2c1.9,0.3,3.8,0.3,5.7,0
	c4.6-0.4,9.3-0.5,14-0.4c1.1,0,2.3,0.2,3.4,0.6c1.9,1,2.8,3.2,3.1,5.3c0.5,3.8-0.6,7.7-3.1,10.7c-2.6,2.9-6.5,4.3-10.3,3.7
	c-4.3-0.8-7.9-4.2-12.3-4.5c-3.4-0.2-6.6,1.5-9.9,2.6c-5,1.7-10.4,1.8-15.7,1.9c-1.5,0.2-3-0.1-4.3-0.7c-0.6-0.3-1-0.8-1.1-1.4
	c0-0.5,0.1-1,0.3-1.5l4.1-10.2c1.4-3.4,2.7-6.9,3.7-10.4c0.8-3.1,1.3-6.3,1.9-9.4c0.6-3.7,1.6-7.3,2.9-10.8c1-2.6,2.2-5.6,0.6-7.8
	c-1.1-1.6-3.3-2.1-4.3-3.7c-1-1.6-0.6-3.4-0.3-5.1c1.4-6.6,3.2-13.1,5.6-19.4c0.4-1.3,1-2.5,1.8-3.6c0.8-0.9,1.7-1.6,2.7-2.2
	c5.6-3.5,12.4-4.4,18.8-2.7L743.8,39.8z"/>
<path class="st0" d="M827.8,44.9c-1.4,6.5-2.9,13.1-2.2,19.7c0.2,1.5,0.3,2.9,0.3,4.4c-0.2,1.3-0.5,2.5-1,3.7l-4,12
	c-0.8,2.8-2,5.5-3.5,8c-1.2,1.8-2.9,3.5-2.9,5.7c-0.1,1.5,0.7,2.9,1.2,4.4c2.1,6.3-0.3,13.3-5.7,17.1c-2.5,1.5-5.1,2.6-7.9,3.3
	c-3.7,1.1-7.4,2.1-11.2,2.1s-7.8-1.3-10.3-4.1c-0.7-0.8-1.3-1.7-1.6-2.7c-0.4-1.7-0.7-3.4-0.7-5.2c-0.4-4.6-2.2-8.9-5.1-12.4
	c-0.5-0.5-0.9-1.1-1.2-1.7c-0.2-0.8-0.2-1.6-0.1-2.4c1-7.6,3.5-14.9,7.2-21.7c0.8-1.2,1.4-2.6,1.7-4c0.3-1.5-0.3-3-1.5-3.8
	c-0.4-0.2-0.8-0.3-1-0.7c-0.1-0.3-0.2-0.6-0.1-1c1.1-7.8,4.4-15.1,9.4-21.1c1.4-1.8,3.1-3.3,5-4.5c2.7-1.4,5.6-2.2,8.6-2.3
	c5.2-0.6,10.4-0.5,15.6,0.2c2.3,0.3,4.5,1,6.5,2.2c2,1.2,3.3,3.3,3.5,5.6L827.8,44.9z M804.6,52c-3.5,2.4-3.1,7.8-5.5,11.3
	c-0.8,1.2-1.9,2.2-2.9,3.3c-0.9,1.2-1.7,2.5-2.3,3.9c-1.3,2.8-2.4,5.7-3.4,8.6l-1.5,4c-0.3,0.7-0.5,1.4-0.5,2.1
	c0.2,0.9,0.4,1.7,0.8,2.5c0.7,2.4-0.4,5.1,0.9,7.2c0.5,0.7,1.3,1.3,2.1,1.7c2.5,1,5.2,0.9,7.6-0.3c2.3-1.2,4.5-2.6,6.4-4.4
	c1.1-0.8,2-1.8,2.7-2.9c2.2-3.7,0.3-8.8,2.4-12.6c0.8-1.5,2.3-2.7,3.1-4.2c1.1-2,1.3-4.3,0.4-6.4c-1-2.4-3.3-4.1-5.3-5.8
	c-2-1.7-4-3.9-4-6.6L804.6,52z"/>
<path class="st0" d="M346.3,123.5c-2.8,1.9-5.9,3.3-9.3,3.3c-4.3-0.1-8.1-2.7-11.3-5.6s-6.1-6.2-9.8-8.3c-2.1-1.2-4.7-2.1-5.9-4.2
	c-1.4-2.4-0.4-5.6-1.6-8.2c-0.4-1-1.2-1.7-1.6-2.7c-1.2-2.9,0.7-6.8-1.3-9.3c-0.6-0.8-1.6-1.2-2.2-2c-1.7-2.2,0-5.3,1.4-7.7
	c4.5-7.8,6.1-16.8,7.6-25.6c0.2-0.7,0.1-1.5-0.2-2.2c-0.4-0.5-1.2-0.6-1.8-1.1c-1-1-0.3-2.7,0.5-3.8l7.9-11.9c2.4-3.7,5-7.5,8.9-9.5
	c3.9-2,8.9-2.1,13.2-0.9c4.3,1.2,8.3,3.6,12.1,5.9c1.5,0.8,2.8,1.8,4,3c1.4,1.8,2.4,3.9,2.8,6.2c2.7,10.7,2.8,21.9,0.2,32.7
	c-0.5,2.4-1.4,4.8-2.6,7c-1.7,3-4.2,5.6-4.8,9c-0.3,2,0.2,4,0.2,6c0,2.1-0.3,4.2-0.8,6.2c-1.6,8-3.5,15.9-5.7,23.8V123.5z
	 M335.6,40.3c-3.4,4.9-7,10.1-7.5,16c-0.3,3.2,0.2,6.8-1.5,9.5c-0.5,0.6-0.9,1.2-1.2,1.9c-1,2.1,0.3,4.6,0.6,6.9
	c0.6,3.7-1.1,7.4-2,11c-0.9,3.7-0.5,8.3,2.8,10.1c1.6,0.8,3.5,1,5.2,0.6c4.4-0.8,8.2-3.7,10.9-7.3c2.7-3.6,4.4-7.8,5.9-12.1
	c1.2-3.5,2.3-7.5,0.6-10.8c-0.9-1.5-2.1-2.7-3.4-3.9c-3.8-3.7-6.8-8.1-8.9-12.9c-1.2-2.8-2-6.1-0.6-8.8L335.6,40.3z"/>
<path class="st0" d="M893.7,73c-0.2-2.4,4.1-2,5.3-4c0.3-0.6,0.4-1.2,0.4-1.8c0.2-3.9-0.2-7.8-1.2-11.5c0,1.2,0.3,2.4,1,3.5
	c0.7,1.1,2.1,1.5,3.2,0.9c1-0.6,1-1.9,1-3.1v-5.7c0-0.8,0-1.6-0.2-2.4c-0.3-0.7-0.7-1.3-1.1-1.9l-7.6-10.3c-0.5-0.8-1.2-1.6-2-2.2
	c-1.1-0.6-2.3-1.1-3.5-1.3c-3.1-1-5.9-3.1-9-4.1c-7.7-2.5-15.9,1.7-22.9,5.7l-10.9,6.3c-1.1,0.5-2,1.3-2.8,2.1
	c-2.3,3,0,7.3-0.1,11.1c0,3.1-1.6,5.9-2.6,8.8c-1,2.9-1.4,6.4,0.6,8.8c0.6,0.8,1.5,1.3,2.1,2.1c0.8,1.3,1.4,2.8,1.6,4.3
	c0.7,3.3,1.9,6.5,3.5,9.5c0.9,1.9,2.1,3.6,3.6,5.1c4.5,4.3,11.2,4.8,17.1,6.7c2.2,0.7,4.6,2,4.8,4.3c0.1,1.6-0.9,2.9-1.5,4.4
	c-1.2,2.6-1.2,5.6-2.1,8.2s-3.5,5.2-6.3,4.5c-2.3-0.6-3.6-3.1-5.7-4.1c-1.4-0.7-3.3-0.7-4.4-1.9c-1-1.2-1-3.5-2.4-4.3
	c-0.6-0.3-1.3-0.4-1.9-0.4c-3.7-0.3-6.9-2.4-9.9-4.5c-0.9-0.5-1.6-1.2-2.1-2c-1.2-2.3,0.8-5,2.8-6.8c-3.4-1.8-8,0-10.1,3.2
	c-2.2,3.2-2.4,7.4-1.9,11.2c0.2,2.1,0.9,4.1,2,5.9c1.8,2.7,4.8,4.4,7.1,6.7c1.7,1.8,3,4,4.8,5.8c3.2,3.3,7.6,5,12.2,4.6
	c2.7-0.2,5.3-1.2,7.9-1.3c3.2-0.1,6.2,0.9,9.3,1.3c5.4,0.8,11.4-0.5,15.3-4.3c2.1-2.3,3.7-5.1,4.6-8.1c3.8-11.4,2.6-23.8-3.3-34.2
	c-0.6-1.1-1.3-2-2-2.9c-1.7-1.6-3.6-2.9-5.7-3.8l-8.9-4.6c-1.8-0.8-3.4-1.9-4.9-3.1c-4-3.7-4.6-10-2.5-15s6.5-8.8,11.2-11.3
	c0.9-0.6,1.9-0.8,3-0.6c0.9,0.4,1.5,1.2,1.8,2.1c0.9,2.3,1.2,4.9,0.8,7.4c-0.5,2.8-1.9,5.5-1.5,8.3c0.4,2.8,2.7,5.3,5.4,6.5
	c2.7,1.1,5.6,1.8,8.5,2L893.7,73z"/>
<path class="st0" d="M36.4,202.7l8.3,1.5c1.1,0.3,2.2,0.3,3.3,0.1c2-0.5,3.2-2.7,3.5-4.8c0.3-2.1-0.2-4.1-0.3-6.2
	c-0.3-3.9,0.4-7.9,2.1-11.5c0.3-0.6,0.7-1.3,1.4-1.4s1.3,0.8,1.7,1.5c1.9,4.2,2.4,8.9,4.5,13c2.1,4.1,6.9,7.5,11.1,5.8
	c3.7-1.5,5-6,5.9-9.8l6.2-27.7c1.1-5,2.3-10.1,2.1-15.3c0-0.5-0.1-1-0.3-1.4c-0.5-0.5-1.1-0.9-1.8-1c-2.9-0.7-6.5-1.1-8.4,1.2
	c-0.7,1.1-1.2,2.5-1.3,3.8c-1.1,7.8-2.3,15.7-3.4,23.5c-3.5-2.8-7.3-5.8-8.9-10c-1.9-4.9-0.7-10.7-2.4-15.7
	c-0.5-1.5-1.3-2.8-2.5-3.8c-3.4-2.7-8.6-0.7-11.7,2.4c-5,5.1-7.1,12.5-5.3,19.5c0.6,2.1,1.4,4.2,1.7,6.4c0.4,3.6-1,7.1-2.1,10.5
	c-2.1,6.4-3.4,13.1-3.9,19.9L36.4,202.7z"/>
<path class="st0" d="M107.7,149.9c3.5,0.8,6.3,3.2,7.8,6.4c1.4,3.2,2.1,6.7,1.9,10.2c0,2.5-0.4,5-1.1,7.4c-1.6,4.6-5.5,8.7-5.3,13.6
	c0.1,2.6,1.4,5.3,0.5,7.8c-0.7,1.7-2,3-3.6,3.9c-2.6,1.8-6.4,3.2-8.8,1.1s-1.8-6-4.1-8.1c-1-0.8-2.3-1.3-2.9-2.4
	c-0.9-1.7,0.4-3.6,0.5-5.5c0.2-3.5-3.9-7-2-9.9c0.5-0.7,1.2-1.2,1.7-1.9c0.5-1,0.7-2.2,0.6-3.3c0-5.1,0-10.4,2.6-14.8
	s8.6-7.1,12.9-4.3L107.7,149.9z M106.9,158.1c-2.7,0.2-4.6,2.7-5.8,5.1c-1,2-1.8,4.2-2.4,6.3c-0.3,1.1-0.5,2.4,0.2,3.4
	c0.3,0.4,0.7,0.7,1.1,1.1c1,1.1,0.8,2.7,0.7,4.2c-0.1,1.4,0.2,3.2,1.5,3.8c1.1,0.4,2.3,0.2,3.2-0.5c2.8-1.9,4.1-5.5,3.2-8.8
	c-0.3-0.8-0.7-1.6-1-2.5c-1.6-3.9-1.7-8.3-0.3-12.3L106.9,158.1z"/>
<path class="st0" d="M129.9,152.2c-2.5,4.1-1.8,9.2-2.2,13.9c-0.3,3.9-1.3,7.6-2,11.4c-1.1,5.5-1.5,11.2-1.4,16.8
	c0,1.1,0.2,2.3,1,2.9c0.6,0.3,1.3,0.5,2,0.4l5.9,0.2c0.6,0.1,1.2,0,1.8-0.3c0.6-0.5,0.9-1.2,1-2c2.2-13.5-3-27.8,1.6-40.7
	c0.3-0.8,0.6-1.8-0.1-2.4c-0.5-0.3-1.1-0.5-1.7-0.3l-4.7,0.4L129.9,152.2z"/>
<path class="st0" d="M144.1,194.9c0.8-1,2.3-0.5,3.1,0.2c0.9,0.8,1.5,1.9,2.5,2.5c1,0.6,2.7,0.4,2.9-0.8c0-0.3,0-0.6-0.1-0.9
	c-1.5-7.1-4.1-13.9-7.7-20.1c2.4,0,4.7-1,6.2-2.9c3.6-4.1,3.1-10.9-0.5-15.1c-3.5-4.2-9.4-6-14.8-5.5c-0.5,2-1,4.3,0.2,5.9
	c1.7,2.4,5.5,1.9,7.7,3.8c1.5,1.4,2,3.6,1.2,5.6c-0.9,1.9-2.6,3.2-4.7,3.4c-1.8,0.1-3.6,0.4-5.3,0.7c-1,0.4-0.7,1.8-1,2.9
	c-0.5,2.2,0,3.7,1.9,4.8c1,0.9,2,1.8,2.9,2.9c0.9,0.7,1.6,1.7,1.9,2.9c0.6,3.6,2.2,6.3,2.3,10L144.1,194.9z"/>
<path class="st0" d="M183.4,154.1c4,1.8,8.5,2.6,12.9,2.3c0.5-0.1,1.1,0,1.5,0.3c0.3,0.4,0.4,0.8,0.3,1.2c-0.1,2.6-1.4,4.9-2.6,7.2
	c-0.7,1.3-1.6,2.8-3.1,2.9c-0.9,0-1.9-0.2-2.8-0.4c-1.5-0.2-3,0.6-4.4,1.1c-1.4,0.5-3.2,0.8-4.4-0.1c-1.3,1.7,0.4,3.9,1.1,5.9
	c0.4,1.4,0.5,2.9,0.3,4.3c-0.2,3.5-0.5,7.2-2.1,10.3c-1,2-2.7,3.9-2.9,6.2c0,0.6,0,1.2,0,1.9c-0.4,2.2-1.9,4-3.9,4.7
	c-2,0.7-4.2,1-6.3,0.9c-0.5,0-0.9,0-1.3-0.2c-1.4-0.7-1.1-2.8-0.6-4.3c3.1-8.7,4.7-17.9,4.7-27.1c0.1-0.7-0.1-1.4-0.3-2
	c-0.7-1.3-2.3-1.6-3.8-1.5c-1.5,0.1-2.9,0.4-4.3-0.1c-1.9-0.8-2.9-3.1-2.6-5.2c0.4-2.1,1.3-4,2.5-5.7c0.6-1,1.4-2,2.5-1.9
	c0.5,0.1,1,0.3,1.5,0.5c2.1,0.8,4.4-0.3,6.5-1c3.8-1.3,7.8-1.4,11.6-0.4"/>
<path class="st0" d="M253.3,145.8c-1.3,0.7-2.1,2.2-1.9,3.7"/>
<path class="st0" d="M236.4,158.8c-0.8,0-1.5,0.4-1.9,1c-0.4,0.6-0.6,1.4-0.7,2.1c-0.4,1.9-0.6,3.8-0.6,5.7c0,1.7,0.1,3.4,0,5
	c-0.2,4.5-0.8,9-1.9,13.4l-1.8,8.8c-0.1,0.6-0.3,1.1-0.5,1.6c-0.5,1-1.4,1.7-2.5,2c-0.6,0.1-1.2,0.1-1.7,0.2
	c-0.8,0.3-1.7,0.5-2.6,0.6c-1.1-0.2-2-1.1-2.2-2.2c-0.2-1.1-0.1-2.2,0.2-3.3l1.8-9.2c0.2-0.6,0.2-1.3-0.1-1.9
	c-0.3-0.4-0.8-0.7-1.2-0.8c-1.3-0.4-2.6-0.8-4-1c-0.4-0.1-0.8-0.1-1.2,0c-0.8,0.2-1.2,1.2-1.5,2c-0.9,3-1.5,6-1.9,9.1
	c-0.1,1.8-0.4,3.6-0.8,5.3c-0.5,1.8-1.8,3.2-3.6,3.8c-2.3,0.7-4.8-0.8-7.2-0.5c-0.6,0.1-1.4,0.2-1.8-0.3c-0.1-0.2-0.2-0.5-0.2-0.8
	c-0.4-1.7-1-3.3-1.7-4.9c-0.6-1.6-0.9-3.5-0.1-5.1c0.4-0.8,1.1-1.5,1.1-2.4c-0.1-0.5-0.1-1-0.2-1.5c0.1-0.4,0.3-0.8,0.6-1.1l3.7-4.8
	c1.1-1.4,2.2-3.3,1.2-4.8c-0.3-0.4-0.7-0.8-1-1.1c-0.8-1-1.1-2.3-1-3.6c-0.1-4.4,1.5-8.6,3-12.6c0.1-0.4,0.4-0.8,0.7-1.1
	c0.2-0.1,0.4-0.2,0.6-0.4c0.4-0.3,0.7-0.7,0.9-1.2c1.5-2.6,4.9-3.5,7.5-1.9c0.3,0.2,0.6,0.4,0.8,0.6c0.5,0.5,1,1.3,0.6,1.9
	c-0.4,0.6-1.5,0.6-1.9,1.3c-0.2,0.6,0.1,1.3,0.7,1.6c0.5,0.4,1.2,0.5,1.7,0.8c1.6,1,1.5,3.4,0.8,5.2c-0.7,1.7-1.9,3.4-2,5.3
	c0,0.3,0,0.5,0.2,0.7c0.2,0.2,0.5,0.3,0.8,0.3l8,0.6c0.2,0,0.5,0,0.7-0.1c0.3-0.2,0.4-0.4,0.5-0.7c1.2-3.6,0.4-7.9,2.5-11.2
	c1-1.6,2.7-2.6,4.5-2.9c1.9-0.2,3.7,0.6,4.8,2.2"/>
<path class="st0" d="M288.7,199.4c-2.7-3,1-8.6-1.6-11.6c-0.2-0.2-0.5-0.5-0.6-0.8c-0.1-0.4-0.2-0.9-0.1-1.3
	c-0.2-1.5-1.7-2.6-3.2-2.3c-0.3,0-0.6,0.2-0.9,0.3c-0.5,0.4-1,0.9-1.3,1.5c-1.6,2.4-2.7,5.1-3.3,7.9c-0.2,1.3-0.6,2.6-1.1,3.8
	c-0.7,1.2-1.6,2.3-2.6,3.2c-1,1-2.3,2.1-3.7,1.8c-0.7-0.1-1.3-0.6-1.9-0.7c-0.5,0-1-0.1-1.4-0.2c-1.2-0.5-1.2-2.1-1.1-3.3
	c0.7-6.3,2.4-12.4,5-18.2c0.9-1.6,1.5-3.3,1.8-5.1c0.1-1.1,0-2.3,0.1-3.4c0.3-3.5,3.2-6.1,5.1-9.1c1.6-2.4,2.7-5.2,4.5-7.5
	s4.6-4.2,7.5-3.8c0.2,0,0.3,0.1,0.5,0.1c0.4,0.2,0.7,0.6,0.9,1c1.2,1.9,2.7,3.5,4.5,4.8c0.4,0.3,0.8,0.6,1.1,1c0.5,0.9,0.2,2,0.3,3
	c0.2,1.3,1.1,2.3,1.8,3.4c1,2.1,1.2,4.4,0.7,6.6c-0.4,2.2-1.3,4.3-1.9,6.5c-1.2,4.8-1.6,9.8-1.1,14.7c0.1,1.5,0.3,3.2-0.6,4.4
	c-0.3,0.3-0.5,0.6-0.8,1c-0.4,0.8,0,2-0.7,2.5s-1.9-0.5-2.9-0.8c-1.1-0.4-2.2,0.2-2.6,1.3c0,0,0,0.1,0,0.1L288.7,199.4z M290.1,175
	c0.2-0.7,0.4-1.4,0.6-2.1c0.9-3.3,0.4-6.8-1.4-9.7c-1.9,0.6-2.5,3.2-4.2,4.3c-0.3,0.2-0.7,0.4-1.1,0.6c-0.7,0.6-1.2,1.3-1.5,2
	c-0.6,1.1-1.2,2.4-0.9,3.6c0,0.2,0.1,0.4,0.3,0.5c0.2,0.1,0.4,0.2,0.6,0.2c1.1,0.2,2.3-0.1,3.3,0.1c0.5,0.1,1,0.3,1.5,0.5
	C288.3,175.4,289.2,175.4,290.1,175L290.1,175z"/>
<path class="st0" d="M325.4,195.9c0.7,0.1,0.6,1.1,1.1,1.6s1.2,0.4,1.9,0.6s1,0.7,1.6,0.9c1.1,0.3,2.2-0.1,2.9-1
	c0.6-0.9,1-1.9,1.2-3l1.2-4.9c0.2-0.8,0.4-1.7,0.4-2.6c-0.1-1.3-0.3-2.5-0.7-3.7c-1.1-3.6-1.5-7.4-1.2-11.2
	c0.4-4.6,2.1-9.1,1.6-13.6c0-0.9-0.4-1.8-1.2-2.4c-1-0.7-2.4,0-3.4,0.8c-0.9,0.8-1.7,1.9-2.9,2.2c-0.4,0.1-0.7,0.2-1,0.3
	c-0.4,0.4-0.7,0.9-0.8,1.4c-1.2,4.7-2,9.4-2.3,14.2c-0.4,0-0.7-0.4-0.8-0.8c-0.1-0.4,0-0.8-0.1-1.3c-0.2-1.3-1.2-2.2-1.7-3.4
	c-0.6-1.6,0.1-3.4,0.2-5.1c0.4-3-1-6-3.6-7.6c-2.6-1.6-6-1.1-8.1,1.2c-1.5,1.8-1.8,4.4-2.1,6.8c-1.2,10.1-4.4,19.8-5.1,29.9
	c-0.1,1,0,2.2,0.8,2.7c0.4,0.2,0.9,0.3,1.3,0.3l2.7,0.1c1.2,0.2,2.4,0,3.5-0.4c2.3-1,2.9-3.9,3.3-6.3l1.2-8.4c0.1-0.6,0.4-1.3,1-1.1
	c0.2,0.1,0.4,0.3,0.5,0.5c1.5,2.8,3,5.7,3,8.8c-0.1,0.8,0,1.6,0.3,2.3c0.1,0.2,0.3,0.4,0.5,0.5c0.6,0.2,1-0.5,1.3-1.1l3.8-9.3
	c0.6,1.6,0.3,3.3,0,5c-0.3,2.5-0.4,5.1-0.1,7.6L325.4,195.9z"/>
<path class="st0" d="M379,155.6c-1.4,0.4-2.6,1.3-3.2,2.7c-0.6,1.3-1.1,2.7-1.3,4.1c-0.7,2.8-1.9,5.7-4.4,7.1
	c-2.9,1.6-6.5,0.4-9.8,0.2c-1.9-0.1-4.3,0.4-4.8,2.3c-0.1,0.2-0.1,0.4,0,0.6c0.2,0.5,0.7,0.6,1.2,0.8c2.7,0.6,5.4,0.7,8.1,0.2
	c-0.9,2-1.9,3.9-3.2,5.7c-0.4,0.7-1,1.3-1.7,1.7c-0.9,0.4-2,0.2-2.9,0.6c-2.1,0.7-2.8,3.5-2.7,5.7c-0.1,1,0.3,1.9,1.1,2.6
	c0.5,0.2,1.2,0.3,1.7,0.2c4.8-0.6,9.2-3.8,14.1-3.4c-2.7,2.5-3.1,6.6-5.1,9.6c-2.2,3.3-6,5.2-9.9,4.9c-1.3-0.2-2.5-0.3-3.8-0.2
	c-1,0.1-1.8,0.5-2.7,0.6c-2.2,0.4-4.5-0.6-5.7-2.5c-0.6-1.3-0.9-2.7-0.7-4.1c0.3-7.9,4-15.7,2.2-23.4c-0.3-1.1-0.6-2.1-0.7-3.2
	c-0.1-2.2,0.9-4.4,2.5-5.9c1.7-1.5,3.7-2.4,5.9-2.8c1.4-0.3,2.8-0.3,4.1,0.2c1.1,0.4,1.9,1.2,3,1.7c1.5,0.5,3.2,0.5,4.7,0
	c1.5-0.5,2.9-1.2,4.5-1.7s3.2-0.8,4.7-1.4c1.6-0.6,3.1-1.4,4.4-2.5L379,155.6z"/>
<path class="st0" d="M387.7,160.8l-1.9,4.1c-0.7,1.1-1,2.4-1,3.7c0.2,1.5,1.3,2.7,1.7,4.1c0.8,2.7-1.1,5.3-2.6,7.7
	c-2.5,4-4,8.6-4.4,13.3c-0.2,2.6,0.1,5.6,2.1,7.4c0.2,0.2,0.5,0.3,0.8,0.4c0.2,0,0.5-0.1,0.7-0.2c1.3-0.7,2.5-1.6,3.6-2.7
	c1-1.4,1.8-2.9,2.1-4.6c1.3-4.3,2-8.7,2.2-13.2c0.1-3.2,0-6.4,0.9-9.5c0.4-1.3,0.9-2.5,1.2-3.8c0.3-1.7,0.4-3.4,0.3-5.2
	c0.1-0.7-0.1-1.4-0.4-2c-0.7-0.8-1.7-1.1-2.7-0.7c-0.9,0.4-1.8,0.9-2.5,1.6L387.7,160.8z"/>
<path class="st0" d="M392.4,160c1.4-0.4,2.9-0.4,4.3-0.2c1.5,0.2,2.7,1.1,3.6,2.3c0.3,0.8,0.8,1.6,1.4,2.3c0.5,0.4,1.1,0.6,1.7,0.8
	c3.3,1.1,5.6,4.1,5.7,7.6c0,3.4-3,6.6-6.3,6.5c-0.3,0-0.6,0-0.9,0.1c-0.7,0.3-0.8,1.1-0.8,1.8c0.1,3.4,1.5,6.7,3.1,9.7
	c0.9,1.3,1.4,2.8,1.6,4.4c0.1,0.6-0.1,1.2-0.5,1.7c-0.3,0.2-0.6,0.4-1,0.5c-1.7,0.4-3.5,0.1-4.9-0.8c-1.4-0.9-2.7-2.1-3.7-3.5
	c-3-4.1-2.6-9.8-5.4-11.7c-0.7-0.5-1.4-4.1-1-4.8c0.7-1,3.9-1.3,5.1-1.3c1.2,0.1,2.5,0.1,3.7-0.2c1.6-0.7,2.6-2.4,2.5-4.2
	c-0.2-1.7-1.1-3.3-2.5-4.3c-1.4-1-4.2-1.1-5.9-1.4L392.4,160z"/>
<path class="st0" d="M424.2,160.4l1,10.4c0.3,2.4,0.4,4.8,0.2,7.2c-0.3,1.9-0.7,3.8-1.3,5.6l-1.8,6c-0.8,2.8-1.7,5.5-2.9,8.1
	c-0.6,1.2-1.5,2.6-2.9,2.4c-0.5-0.1-1-0.3-1.4-0.7c-2.7-2.1-3.5-6-3-9.4c0.5-3.4,2.1-6.5,3.6-9.6c0.8-1.8,1.6-3.9,0.6-5.5
	c-0.5-0.7-1.3-1.2-1.7-2c-0.4-0.8-0.5-1.6-0.5-2.4c-0.1-2.5-0.1-5.1,1.1-7.3c0.2-0.5,0.7-0.9,1.2-1.1c0.3-0.1,0.6,0,1,0
	c1-0.2,1.3-1.2,1.9-1.9c1.2-1.1,3-1.1,4.2,0.1c0.2,0.2,0.3,0.3,0.4,0.5L424.2,160.4z"/>
<path class="st0" d="M458.9,176.9c2.4-3.1,4.9-6.6,4.5-10.5c0.3,1.1-0.1,2.3-0.9,3.1c-1-1.8-0.3-4.1-0.7-6.2c-0.6-3-3.5-5-6.5-5.5
	s-6,0.3-8.9,1.2c-2.4,0.7-4.7,1.7-6.9,3.1c-2.7,2-4.8,4.7-6.1,7.8c-1.3,3.1-2.3,6.3-2.9,9.5c-0.7,2.8-1.2,5.6-1.4,8.4
	c-0.2,2.6,0.1,5.3,1.7,7.4c1.2,1.3,2.6,2.3,4.1,3c1.5,0.8,3,1.5,4.5,2.3c0.9,0.5,1.9,0.8,3,0.9c1.2,0,2.3-0.8,3.5-1.1
	c2.1-0.7,4.4-0.2,6.3-1.2c1.9-1,2.8-2.9,3.4-4.8c0.6-1.9,0.9-4,1.9-5.7c0.2-0.4,0.5-1,0.2-1.4c-0.3-0.4-1-0.2-1.5,0.1
	c-1.6,1-3.3,1.8-5.1,2.2c-1.8,0.4-3.8,0.1-5.4-1c-0.8-0.6-1.5-1.5-2.6-1.8c-0.8-0.1-1.6-0.2-2.4-0.3c-1.5-0.6-1.6-2.8-1.1-4.4
	c1.2-4.5,3.8-8.5,6.3-12.4c0.3-0.6,0.8-1.1,1.4-1.5c0.5-0.2,1.1-0.3,1.6-0.2l3,0.1c0.4,0,0.8,0.1,1.1,0.4c0.2,0.3,0.2,0.7,0.4,1.1
	c0.4,1.1,2.2,1.1,2.9,2c0.8,0.9,0.4,2,0.2,3c-0.1,1,0.1,2.4,1.1,2.6L458.9,176.9z"/>
<path class="st0" d="M493.5,199c-1.7,1.2-3.9,1.5-5.8,0.7c-1.9-0.8-3.5-2.1-4.6-3.9c-0.4-0.5-0.7-1.1-0.8-1.7c-0.2-1.5,1-3,0.4-4.3
	s-2.3-1.7-2.3-3c0-0.3,0.1-0.6-0.1-0.8c-0.4-0.5-1.2,0.1-1.5,0.6c-1.2,2.3-2.1,4.7-2.6,7.2c-0.2,1.2-0.5,2.3-1,3.4
	c-0.4,1.1-1.4,1.9-2.5,2.2c-1.5,0.3-2.9-0.7-4.4-1c-1.2-0.1-2.4,0.1-3.4,0.7c-0.8,0.5-1.7,0.9-2.6,1.2c-1,0.2-1.9-0.3-2.2-1.3
	c0-0.4,0.1-0.8,0.3-1.2c0.6-1.5,1.4-2.9,2.1-4.4c3.4-7.3,3.7-15.9,7.8-22.9c1.5-2.4,3.2-4.6,5.1-6.7c1.6-2,3.3-3.8,5.2-5.5
	c1.4-1.1,2.8-2.1,4.3-3c0.3-0.3,0.7-0.4,1.1-0.2c0.5,0.3,0.4,1,0.4,1.6c0.2,1.1,0.9,2.1,1.9,2.6c1,0.5,1.9,1.1,2.8,1.8
	c1,1.2,1.5,2.6,1.4,4.2c0,1.5-0.2,3-0.1,4.5c0.2,2.7,1.6,5.2,1.8,7.9c0,1.6-0.2,3.3-0.4,4.9c-0.2,2.9,0.5,5.7,1,8.5
	c0.5,2.8,0.6,5.9-0.6,8.5L493.5,199z M487.5,169.3c-0.3-1.1-1-2.1-2-2.7c-1.3-0.9-3-1.6-4.3-0.8c-0.7,0.6-1.2,1.3-1.5,2.2
	c-1.1,2.5-2.5,4.8-4.2,6.9c-0.5,0.5-0.8,1.1-1,1.7c-0.2,0.7,0.1,1.4,0.7,1.7c0.6,0.1,1.2,0,1.6-0.4c1.1-0.5,2.2-0.9,3.4-1.1
	c1.3-0.2,2.8-0.1,3.6,0.8c0.2,0.2,0.4,0.5,0.7,0.5c0.3,0,0.5-0.3,0.7-0.5c1.3-1.9,2.6-4,2.6-6.3c0-1.3-0.4-2.5-0.2-3.8L487.5,169.3z
	"/>
<path class="st0" d="M530.3,197.1c-1.1,1-1.7,2.6-3,3.4c-1.3,0.8-2.9,0.8-4.1,0c-0.8-0.5-1.6-1.4-2.5-1.1c-0.3,0.1-0.6,0.2-1,0.3
	c-0.4-0.1-0.8-0.3-1-0.7c-3.5-5-3.6-11.4-3.6-17.6c0.2,2.6-1.9,4.7-3,7c-0.7,1.8-1.2,3.6-1.6,5.5c-0.3,1.9-1.2,3.6-2.6,5
	c-1.4,1.3-3.7,1.7-5.2,0.5c-0.3-0.4-0.7-0.6-1.2-0.8c-0.6-0.1-1.3,0.2-1.8-0.1c-0.3-0.3-0.4-0.7-0.4-1.1c0-3.3,2-6.3,2.2-9.5
	c0.1-1-0.1-2,0.1-3c0.4-1.6,0.9-3.1,1.7-4.5c0.8-1.9,1.4-3.8,1.8-5.8l2.9-11.7c0.4-1.4,1.1-3.1,2.5-3.1c0.4,0.1,0.9,0.1,1.3,0.3
	c1.9,0.3,3.6-1.4,5.6-1.5c1.3,0.1,2.5,0.7,3.3,1.7c0.8,1,1.3,2.2,1.7,3.4c1.6,4.7,2.6,9.7,2.8,14.7c0,0.4,0.1,1,0.5,1.2
	c0.7,0.3,1.2-0.7,1.3-1.4l1.7-10.8c0.4-2.4,1-5.2,3.2-6.3c1.4-0.7,3.1-0.5,4.3,0.5c0.3,0.3,0.7,0.6,1.1,0.8c0.8,0.3,2-0.2,2.6,0.5
	c0.3,0.4,0.4,0.8,0.4,1.3c0.1,6.6-3.5,12.7-4.8,19.1c-0.8,4.2-0.8,9-3.7,12.2c-1.1,1.2-2.6,2.2-3.2,3.7L530.3,197.1z"/>
<path class="st0" d="M602.8,155.3c2.5,1.7,5.7,1.7,8.7,1.6l4.2,0c1.4,0,3.1,0.2,3.6,1.5c0.2,1-0.2,2.1-1,2.7
	c-2.2,2.4-5.2,3.9-8.5,4.3c-3,0.3-6.7-0.2-8.6,2.2c-0.5,0.8-0.9,1.6-1.1,2.5l-3.6,11.2c-0.5,1.3-0.7,2.7-0.5,4
	c0.4,1.3,1.4,2.2,2,3.4c1.3,2.9,0,6.3-2.9,7.5c-0.4,0.2-0.7,0.3-1.1,0.4c-1.1,0.2-2.2-0.1-3-0.8c-0.8-0.8-1-2-1.5-3
	c-0.5-1-1.4-2-2-3.2c-1.1-2.4-0.5-5.2,0.2-7.8l3.3-12.5c0.1-0.4,0.2-0.8-0.1-1c-0.2-0.2-1-0.1-1.4,0.2c-3,1.6-6.6-0.2-9.5-1.9
	c-0.5-0.2-0.9-0.6-1.2-1c-0.7-1-0.3-2.3,0.2-3.3c2-4.2,6.3-7,10.9-8c4.6-0.8,9.4-0.2,13.7,1.6L602.8,155.3z"/>
<path class="st0" d="M634.8,177.5c1.3,5.1,1.9,10.8-0.4,15.5c-0.5,1.4-1.6,2.5-3,3.1c-0.8,0.2-1.5,0.3-2.3,0.3
	c-2.6,0.3-5.1,2-7.7,1.9c-0.4,0-0.9-0.1-1.2-0.3c-0.4-0.3-0.7-0.7-0.9-1.1c-1.1-1.6-1.8-3.5-2.2-5.4c-0.1-1.3,0-2.7,0.2-4
	c0.4-2.9,0.5-5.9,0.4-8.9c-0.1-1,0-2,0.2-3c0.3-0.8,0.6-1.5,1.1-2.1c2.4-3.8,4.8-7.4,7.5-11c1.7-2.3,3.6-4.7,6.3-5.6
	c1.9-0.5,3.8-0.6,5.7-0.2c0.7,0.1,1.5,0.3,2.1,0.6c1.5,1,1.6,3.1,1.5,4.9c0,1.5-0.3,2.9-1,4.2c-0.5,0.7-1,1.3-1.6,2
	c-1,1.3-1.4,2.9-2.2,4.2c-0.7,1.1-1.6,2-2.3,3.1c-0.7,1.1-0.9,2.5-0.3,3.6c0.1,0.1,0.3,0.2,0.3,0.1L634.8,177.5z M628.8,182.2
	c-0.1-1.9,0-3.8,0.5-5.6c0.3-0.8,0.4-1.6,0.5-2.4c0.1-1.2-0.3-2.4,0-3.5c0.2-0.6,0.6-1.3,0.4-1.9c-0.4-0.7-1.2-0.9-1.8-0.5
	c-0.6,0.4-1.1,0.9-1.4,1.6c-1.2,1.9-2.3,3.9-3.3,6c-0.6,1.2-1.1,2.5-1.3,3.8c-0.2,1.3,0.1,2.7,0.9,3.8c0.3,0.4,0.6,0.6,1,0.8
	c0.4,0.1,0.8,0.1,1.2,0.1c0.7,0.1,1.5,0.1,2.2-0.1c0.7-0.2,1.3-1.1,0.9-1.7L628.8,182.2z"/>
<path class="st0" d="M652.6,164c-2.3,3.3-4.5,6.7-6.6,10.2c-0.3,0.4-0.5,1-0.2,1.3c0.2,0.2,0.5,0.2,0.7,0.2c1.4,0,2.8-0.1,4.2-0.4
	c-0.1,1.9-0.7,3.7-1.7,5.3c-0.6,0.8-1.1,1.7-1.6,2.5c-0.5,1.1-0.8,2.3-0.9,3.5c-0.3,2.4-0.5,4.8-0.6,7.3c0,1.1,0,2.3,0.8,3
	c1.1,1,2.7,0.4,4.2,0.3c2.2,0,4.2,1.4,5.9,2.7c0.7,0.7,1.6,1.1,2.6,1.2c0.8-0.2,1.5-0.4,2.2-0.8c1.4-0.5,3,0,4.4-0.4
	c1.5-0.6,2.8-1.6,3.5-3c2.5-3.8,3.8-8.3,3.7-12.9c0-0.5,0-1,0.1-1.4c0.2-0.6,0.5-1.1,0.8-1.6c2.1-3.9-0.6-9.4,1.9-13.1
	c0.8-1.2,2.2-2.4,1.9-3.8c-0.2-1-1.3-1.6-2.3-2.1c-1.2-0.6-2.8-1.2-3.9-0.5c-0.9,0.6-1.4,1.6-1.4,2.6c-0.1,1,0.1,2.1,0,3.1
	c-0.2,3.3-2.6,5.9-3.6,9.1c-0.2,1-0.6,1.9-1,2.9c-0.6,1.1-1.7,1.9-2.2,3.1c-0.7,1.5-0.3,3.3,0,5c0.1,0.3,0.1,0.7-0.1,1
	c-0.2,0.2-0.4,0.3-0.7,0.3c-1.5,0.2-3-0.5-3.8-1.8c-0.4-1.1-0.4-2.3,0.1-3.4c0.4-1.1,1.1-2,1.6-3.1c1.1-2.1,1.4-4.5,0.8-6.8
	c-0.5-1.1-0.8-2.3-1-3.5c0-1.7,1-3.3,0.8-5c-0.1-1.7-1.5-3-2.7-4.1c-0.3-0.3-0.6-0.5-1-0.7c-0.7-0.1-1.4,0-1.9,0.5
	c-1,0.6-1.8,1.4-2.6,2.3c-0.4,0.5-0.8,1.4-0.2,1.8"/>
<path class="st0" d="M691.2,166.2c0.5-0.9,0.7-2,0.6-3c0-0.1-0.1-0.3-0.2-0.4c-0.2-0.2-0.5,0-0.7,0.1c-1.6,1-3,2.1-4.3,3.5
	c-1.3,1.4-2,3.2-2,5.1c0,0.3,0.2,0.6,0.5,0.6c0.1,0,0.1,0,0.2,0l2.8,0.2c0.4,0,0.8,0.1,1.2,0.2c0.5,0.3,0.9,0.9,1.1,1.5
	c0.4,1.7,0.1,3.5-0.6,5c-0.7,1.6-1.7,3-2.5,4.5c-1.2,2.5-2,5.3-2.4,8c-0.2,1.7-0.4,3.3-0.5,5c-0.1,0.6,0,1.1,0.2,1.7
	c0.4,0.9,1.1,1.5,2,1.8c0.9,0.2,1.8,0.3,2.8,0.3h5.8c1.9,0,4-0.1,5.3-1.6c0.7-1,1.1-2.3,1-3.5c0-1.2-0.3-2.5-0.2-3.8
	c0.1-2.4,1.2-4.6,1.2-7c-0.1-2.2-1.1-4.1-1.6-6.3c-0.3-1.5-0.4-3.1-0.7-4.7c-0.2-1.1-0.7-2.2-0.9-3.3c-0.4-2.5,0.3-5,0.6-7.5
	c0.1-0.4,0-0.8-0.1-1.2c-0.4-0.5-1-0.7-1.6-0.7c-1.2-0.2-2.5-0.1-3.7,0.1c-1.2,0.2-2.3,1-3,2"/>
<path class="st0" d="M684.9,160.1c1.6-0.3,3.3-0.3,5-0.1c1.6,0.1,3.2,0.1,4.8-0.1c1.4-0.2,2.8-0.4,4.1-0.6c1.6-0.1,3.3-0.1,4.9-0.1
	l12.2,0.3c-0.2,1-0.3,2.1-0.2,3.1c0.1,1.1,0.7,2,1.7,2.5c0.7,0.3,1.5,0.3,2.1,0.8c0.4,0.4,0.6,0.9,0.7,1.4c0.5,2,0.4,4.1-0.3,6.1
	c-0.2,0.6-0.5,1.1-0.9,1.5c-0.4,0.3-0.9,0.5-1.4,0.5l-3.3,0.8c-1.8,0.4-3.8,0.9-5.6,0.3c0.6,1.5,2.1,2.4,3,3.7
	c0.9,1.3,1.3,2.9,1.9,4.4s1.8,2.9,3.4,3.1c0.5,0.1,1,0,1.5,0.1c0.5,0.1,1,0.4,1.1,1c0,0.2,0,0.4,0,0.5c-0.4,2.6-1,5.2-2,7.6
	c-0.4,1-0.9,2-1.9,2.3c-0.8,0.1-1.6-0.2-2.2-0.7c-0.6-0.5-1.1-1.2-1.7-1.7c-1.1-1-2.6-1.3-3.9-2.1c-1.3-0.8-2.3-2.1-2.8-3.6
	c-0.9-2.8,0-6.1-1.8-8.5c-0.8-1-1.9-1.6-2.6-2.7c-0.4-0.7-0.7-1.5-0.8-2.3l-1-4.8c1.6-1.2,3.9-0.9,5.9-0.7c2,0.2,4.4-0.1,5.5-1.8
	c0.8-1.6,0.4-3.5-1-4.7c-1.4-1.1-3-1.7-4.8-1.8c-1.2-0.1-2.4-0.1-3.7,0c-0.7,0.1-1.4,0.1-2.2,0c-0.6-0.2-1.2-0.5-1.8-0.9
	c-3.7-2-8.4-0.8-12.4-2.2c-0.6-0.2-1.3-0.6-1.4-1.2"/>
<path class="st0" d="M762.4,170.8c-0.7,1-1.2,2.1-1.5,3.2c-0.1,0.3-0.1,0.5,0,0.8c0.1,0.4,0.4,0.7,0.8,0.8c1.9,1,4.2,1.1,6.2,0.2
	c2-0.9,3.9-1.9,5.7-3c1.9-1.1,4-1.5,6.2-1.2c0.5,0.1,1,0.3,1.4,0.6c1,0.9,1,2.4,0.6,3.7c-0.9,3.6-3.3,6.7-5.7,9.5
	c-0.9,1.1-1.9,2-2.9,2.9c-1,0.7-2,1.2-3,1.8c-2.4,1.6-4.6,3.6-6.5,5.7l-7,7.1c-0.5,0.5-1,1.3-0.5,1.8c0.3,0.2,0.7,0.3,1,0.3
	c2-0.2,3.8-1.5,5.7-2.1c4.9-1.4,10.1,2.4,15.1,1.3c1.2-0.2,2.3-0.8,3.4-1c4.6-1,9.6,2.3,13.8,0.3c0.9-0.4,1.6-1.1,1.9-2.1
	c0.1-0.6,0.1-1.1,0-1.7l-0.7-6c0-0.3-0.1-0.7-0.3-1c-0.4-0.3-0.9-0.4-1.3-0.2c-5.6,0.7-11.6,1.9-16.8-0.3c2.8-1.1,5.1-3,6.7-5.5
	c1-1.6,1.7-3.5,3.3-4.4c0.6-0.4,1.4-0.5,2-1c0.8-0.6,1.4-1.4,1.8-2.3c1-1.9,1.9-3.9,2.6-5.9c0.4-0.9,0.5-1.9,0.4-2.9
	c-0.6-2.5-4.1-3.2-5.3-5.5c-1-1.8-0.3-4.3-1.7-5.8s-3.7-1-5.6-0.6l-6.6,1.7c-3.2,0.8-6.5,1.7-8.8,4c-1,1.1-1.9,2.2-2.7,3.5
	c-0.8,1.2-1.6,2.5-2.1,3.9L762.4,170.8z"/>
<path class="st0" d="M804.2,181.9c0.2-1.1,0.7-2.2,1.3-3.2c0.8-1.8,1.1-3.8,0.9-5.7c-0.2-0.8-0.2-1.6-0.2-2.4
	c0.2-1.2,0.7-2.4,1.6-3.3c2.4-3.1,5.6-5.4,8.8-7.7c0.9-0.7,1.9-1.3,2.9-1.8c1.6-0.6,3.3-0.7,4.9-0.2c1,0.2,1.9,0.9,2.4,1.8
	c0.4,0.8,0.3,1.8,0.7,2.6c0.4,0.8,1.3,1.4,1.6,2.3c0.2,0.7,0.2,1.4,0.1,2.1c-0.4,3.9-1.2,7.7-2.3,11.4c-0.5,1.2-0.9,2.5-1.1,3.8
	c-0.2,2.2,0.2,4.5,1,6.6c0.8,2.1,1.2,4.3,1.3,6.6c-0.1,2.2-1.1,4.6-3.1,5.6c-0.9,0.4-2,0.6-3,0.6c-2.5,0-5-1-7.5-0.9
	c-1.4,0.1-2.8,0.4-4.2,0.4c-1.7-0.2-3.4-0.8-4.9-1.7c-0.7-0.3-1.3-0.8-1.7-1.4c-0.4-1-0.5-2.1-0.2-3.1l2.6-15.3 M817.3,166.4
	c-2.5,1.3-3.7,4.2-4.3,6.9c-1.1,5.3-0.8,10.7,1,15.8c0.1,0.6,0.5,1.1,1,1.4c0.6,0.3,1.4,0.1,1.8-0.4c0.4-0.5,0.8-1.1,1-1.7
	c1.1-2.5,1.9-5.2,2.4-8c0.2-1.9,0.2-3.7,0-5.6c0-1-0.2-1.9-0.5-2.9c-0.6-1.5-2.1-2.9-1.7-4.6L817.3,166.4z"/>
<path class="st0" d="M841.2,169.1c0.5,2.1,0.2,4.3-0.8,6.2c-1,1.9-2.2,3.6-3.6,5.2c2.2,0.1,4.5,0.5,6.6,1.2c0.2,0.1,0.5,0.1,0.7,0.1
	c0.2-0.1,0.4-0.2,0.5-0.4l7-9.1c-1,3.8-2.1,7.6-3.3,11.3c-0.5,1.5-1,3-1.7,4.5c-2.6,5.1-7.7,8.6-9.9,13.9c2.6-1.1,5.4-1.5,8.2-1.3
	c2.8,0.2,5.6,0.3,8.4,0.2c-0.5-1.5-0.6-3-0.3-4.6c1-9.2,4-18.1,5.3-27.3c0.4-2.6,0.6-5.3,0.8-8l0.5-6.3c-2.2,1.7-3.5,4.4-5.7,6.3
	c-2.5,2.1-5.8,2.9-8.8,4.2c-1.2,0.4-2.2,1.1-3,2.1c-1.1,1.4-1.3,3.3-1.4,5.1"/>
<path class="st0" d="M870.8,163.1c1-1.4,2.3-2.5,3.7-3.3c3.3-2.1,7-3.6,10.9-4.3c3.9-0.7,7.9-0.1,11.4,1.8c1.3,0.7,2.4,1.7,3.1,3
	c1.1,2.2,0.3,5-1,7.1s-3,4-4.1,6.2c-1.1,2.2-1.4,5.1,0.2,7.1c0.9,0.9,2,1.7,3.3,2.2c1.2,0.6,2.3,1.5,3.3,2.5
	c1.4,1.8,2.4,4.1,2.6,6.4c0.3,1.3,0.3,2.6,0,3.9c-0.3,1.3-1.3,2.4-2.6,2.7c-1.3,0.3-2.6-0.4-3.9-0.6c-2.1-0.3-4.2,0.5-6.2,1
	c-3.9,1-8,0.9-12,0.7l-7-0.3c-0.8,0-1.6-0.1-2.3-0.5c-1.1-0.8-1.3-2.4-1.1-3.7c0.5-3.3,2.9-6.1,5.7-8c1.3-0.9,2.8-1.6,4.1-2.6
	c1.3-0.9,2.3-2.3,2.7-3.9c0.4-1.6-0.4-3.3-1.9-4c-0.9-0.2-1.8-0.3-2.7-0.3c-1.5,0-2.9-0.4-4.2-1.1c-0.8-0.4-1.5-1-2-1.7
	c-0.5-1-0.7-2.1-0.6-3.2c0-2.7,0.5-5.3,1.5-7.8c0.1-0.3,0.4-0.6,0.6-0.4L870.8,163.1z M880.6,163.6c-0.9,0.6-1.7,1.4-2.3,2.2
	c-0.6,0.9-0.8,2-0.5,3c0.6,1.4,2.4,2,3.9,2c2.6,0,5-1.1,7.4-2.2c1.7-0.8,3.6-1.7,4.4-3.5c0.7-1.9-0.2-4-2-4.9c-1-0.4-2-0.5-3-0.4
	c-1.4,0-2.7,0.1-4.1,0.5c-1.3,0.4-2.5,1.3-3.1,2.5L880.6,163.6z M891.3,182.8c-1.2-0.5-2.5-0.7-3.7-0.3c-1.2,0.3-2.4,0.9-3.4,1.6
	c-1.5,0.9-2.7,2.1-3.5,3.7c-0.8,1.6-0.5,3.5,0.6,4.8c0.8,0.7,1.8,1.1,2.9,0.9c0.7-0.2,1.4-0.5,2.1-0.8c1.2-0.4,2.6-0.5,3.8-0.1
	c0.6,0.3,1.4,0.4,2.1,0.3c0.6-0.4,1-1,1.1-1.8c0.4-2.8-0.4-5.7-2.4-7.8L891.3,182.8z"/>
<path class="st0" d="M40,229.9c48-24.9,104.6-17.5,155.6-8.1c28.1,5.2,56.5,11.2,85.1,12.6c14.5,0.8,29,0.6,43.5-0.6
	c14.9-1.2,29.7-1.7,44.6-2.7c60.6-4.2,121.1-10.6,181.6-16.5c29-2.9,58.2-7.6,87.4-3.6c14.2,2,28,5.8,42.1,8.6
	c13.8,2.8,27.9,5.4,42,6.9c8.4,0.9,16.8,1.1,25.2,1.9c7.8,0.8,15.7,1.4,23.5,1.8c16.4,0.7,32.8,0.8,49.1,0.3
	c32.9-1,65.6-4.1,98.2-8.2c2.6-0.3,2.6-4.4,0-4.1c-29.6,3.5-59.3,6.2-89.1,7.5c-28.9,1.3-58.4,1.6-87.2-1.5
	c-7.6-0.8-15.1-2.5-22.6-3.7c-7.2-1.1-14.3-2.4-21.4-3.9c-14.1-3.1-27.7-7.6-41.6-11.2c-28.1-7.4-58.1-6.5-86.8-3.7
	c-61.1,5.9-122.3,12.1-183.3,19.1c-29.6,3.4-58.9,9.3-88.9,8.8c-29.3-0.4-58.2-6.9-86.7-13.3c-57.2-12.9-121.5-26.5-175.6,4.6
	C28.9,224.2,34,232.9,40,229.9L40,229.9z"/>
</svg>
